<?xml version="1.0" encoding="UTF-8"?>
<svg id="Layer_1" data-name="Layer 1" xmlns="http://www.w3.org/2000/svg" viewBox="0 0 833.5 172.56">
  <defs>
    <style>
      .cls-1 {
        fill: #e0251c;
      }
    </style>
  </defs>
  <path class="cls-1" d="M126.88,162.38c-3.15.99-6.45,1.99-9.93,2.98-4.64,1.32-9.19,2.48-13.65,3.47-5.46.99-10.68,1.82-15.64,2.48-5.96.83-11.51,1.24-16.64,1.24-25.66,0-44.2-8.03-55.62-24.09C5.13,134.24,0,112.64,0,83.67c0-12.91,1.08-24.16,3.23-33.77,2.32-10.59,6.04-19.45,11.17-26.57C25.66,7.78,44.11,0,69.77,0,87.15,0,100.72,3.64,110.49,10.93c8.44,6.46,13.24,15.06,14.4,25.82h-29.8c-.66-6.12-2.9-11.42-6.71-15.89-5.3-6.12-12.66-9.19-22.09-9.19-8.44,0-15.48,2.32-21.11,6.95-4.96,4.14-8.85,10.1-11.67,17.88-2.48,6.62-4.22,14.65-5.21,24.08-.66,6.95-.99,15.31-.99,25.08,0,10.93.75,20.61,2.24,29.05,1.65,9.44,4.3,17.38,7.95,23.84,7.95,14.9,20.94,22.35,38.98,22.35,7.45,0,15.15-1.4,23.09-4.22v-50.41c0-10.59-1.41-17.21-4.22-19.86-2.15-1.82-9.02-3.89-20.61-6.21v-5.47h52.14v87.65Z"/>
  <path class="cls-1" d="M169.83,149.72c-9.77-13.74-14.65-34.67-14.65-62.82,0-14.07,1.07-26.07,3.23-36,2.31-11.09,5.96-20.27,10.92-27.56C180.26,7.78,198.46,0,223.96,0s42.37,7.78,53.13,23.34c9.44,13.91,14.15,35.1,14.15,63.56s-4.72,49-14.15,62.57c-10.76,15.39-28.47,23.09-53.13,23.09s-43.04-7.61-54.13-22.84M183.73,111.48c.99,9.27,2.81,17.22,5.46,23.83,2.98,7.95,7.12,14.07,12.42,18.37,5.96,4.8,13.4,7.2,22.35,7.2s16.64-2.4,22.59-7.2c5.13-4.14,9.1-10.09,11.92-17.88,2.32-6.45,3.89-14.4,4.72-23.83.33-3.81.5-8.03.5-12.67.16-3.48.25-7.61.25-12.41s-.08-9.02-.25-12.67c-.17-4.63-.42-8.93-.75-12.91-.83-9.6-2.4-17.71-4.72-24.33-2.98-7.95-7.04-13.99-12.16-18.13-5.8-4.8-13.16-7.2-22.1-7.2s-16.64,2.32-22.6,6.95c-5.46,4.14-9.68,10.18-12.66,18.13-2.48,6.62-4.22,14.73-5.21,24.33-.34,3.97-.58,8.28-.75,12.91-.17,3.81-.25,8.11-.25,12.91,0,9.44.41,17.63,1.24,24.58"/>
  <path class="cls-1" d="M319.54,36.5c0-12.25-1.08-19.61-3.23-22.1-1.99-2.32-8.77-4.38-20.36-6.21V2.73h69.52c3.64.17,7.12.42,10.43.75,8.77.83,16.47,2.4,23.09,4.72,8.44,3.14,14.98,7.61,19.62,13.41,5.62,6.79,8.44,15.31,8.44,25.57,0,12.91-3.89,22.84-11.67,29.79-6.12,5.63-14.89,9.35-26.32,11.17l45.69,81.69h-28.56l-43.95-77.22h-15.39v77.22h-27.31V36.5ZM346.86,80.94h14.15c4.63,0,8.94-.41,12.91-1.24,4.8-.83,8.94-2.32,12.41-4.47,8.94-5.3,13.41-14.15,13.41-26.56s-3.4-21.68-10.18-27.31c-5.96-4.64-14.65-6.95-26.07-6.95-7.78,0-12.66,1.49-14.65,4.47-.83,1.49-1.41,3.81-1.74,6.95-.17,1.83-.25,5.47-.25,10.93v44.2Z"/>
  <path class="cls-1" d="M539.77,22.84c-.99-.5-1.99-.99-2.98-1.49-1.33-.5-2.65-1.08-3.97-1.74-3.47-1.32-6.95-2.48-10.43-3.47-9.61-2.98-18.62-4.47-27.06-4.47-15.89,0-23.84,8.03-23.84,24.09,0,8.44,4.22,15.89,12.67,22.35,3.14,2.48,7.45,5.21,12.91,8.19,1.82,1.16,4.22,2.48,7.2,3.97l7.7,3.72c5.96,3.32,10.84,6.21,14.65,8.69,5.13,3.31,9.44,6.7,12.91,10.18,8.44,8.61,12.67,18.87,12.67,30.79,0,16.72-6.13,29.3-18.38,37.74-10.76,7.45-25.41,11.17-43.94,11.17-4.47,0-9.19-.33-14.15-.99-4.14-.49-8.36-1.08-12.67-1.74l-16.64-3.73v-20.11c2.48,1.49,5.13,2.9,7.95,4.22,3.81,1.82,7.53,3.48,11.17,4.96,10.26,3.81,19.7,5.71,28.3,5.71s16.05-1.99,21.35-5.96c6.46-4.96,9.68-12.66,9.68-23.09,0-8.77-4.22-16.64-12.66-23.59-3.31-2.65-7.62-5.46-12.91-8.44l-14.65-7.95c-6.29-3.14-11.26-5.96-14.89-8.44-5.3-3.31-9.6-6.71-12.91-10.18-8.44-8.44-12.66-18.54-12.66-30.29,0-28.64,18.62-42.96,55.86-42.96,7.28,0,15.23.58,23.84,1.74l15.89,2.73v18.37Z"/>
  <path class="cls-1" d="M574.53,35.51c0-9.93-1.24-16.14-3.72-18.62-2.65-2.65-9.68-4.55-21.11-5.71v-5.46L601.85,0v82.68h.5L663.92,2.73h18.12l-56.36,73,66.54,94.1h-31.78l-58.1-84.17h-.5v84.17h-27.31V35.51Z"/>
  <path class="cls-1" d="M741.13,34.51c.83-2.48,1.74-5.21,2.73-8.19.99-3.48,1.49-5.62,1.49-6.45,0-4.3-1.9-7.28-5.71-8.94-1.66-.66-3.72-1.24-6.21-1.73l-7.2-1V2.73h46.68l60.58,167.1h-25.82l-18.62-51.64h-63.32l-18.62,51.64h-15.39l49.41-135.32ZM729.96,106.51h54.87l-28.3-72.5-26.57,72.5Z"/>
</svg>