<?xml version="1.0" encoding="UTF-8"?>
<svg id="Layer_1" data-name="Layer 1" xmlns="http://www.w3.org/2000/svg" viewBox="0 0 96.48 96.65">
  <defs>
    <style>
      .cls-1 {
        fill: none;
        stroke: #042f57;
        stroke-miterlimit: 10;
        stroke-width: .51px;
      }

      .cls-2 {
        fill: #c7eafb;
      }

      .cls-3 {
        fill: #fff;
      }

      .cls-4 {
        fill: #190b8c;
      }
    </style>
  </defs>
  <path class="cls-2" d="M96.48,19.53H0v-9.64h96.48v9.64Z"/>
  <path class="cls-2" d="M96.48,38.81H0v-9.64h96.48v9.64Z"/>
  <path class="cls-2" d="M96.48,58.09H0v-9.64h96.48v9.64Z"/>
  <path class="cls-2" d="M96.48,77.37H0v-9.64h96.48v9.64Z"/>
  <path class="cls-2" d="M96.48,96.65H0v-9.64h96.48v9.64Z"/>
  <path class="cls-3" d="M96.48,9.89H0V.25h96.48v9.64Z"/>
  <path class="cls-3" d="M96.48,29.17H0v-9.64h96.48v9.64Z"/>
  <path class="cls-3" d="M96.48,48.45H0v-9.64h96.48v9.64Z"/>
  <path class="cls-3" d="M96.48,67.73H0v-9.64h96.48v9.64Z"/>
  <path class="cls-3" d="M96.48,87.01H0v-9.64h96.48v9.64Z"/>
  <path class="cls-1" d="M0,.25h96.48"/>
  <path class="cls-1" d="M0,96.36h96.48"/>
  <path class="cls-4" d="M7.2,3.7v5.14l-3.34-3.89v3.65h-.54V3.46l3.34,3.89v-3.65h.54Z"/>
  <path class="cls-4" d="M8.08,5.71c.11-.09.26-.18.45-.27.19-.09.42-.13.69-.13.23,0,.43.04.6.12.17.08.3.19.4.33.09.15.14.32.14.53v2.31h-.5v-2.23c0-.11-.02-.2-.05-.28-.03-.07-.08-.13-.14-.17-.06-.04-.13-.07-.21-.09-.08-.02-.16-.03-.25-.03-.14,0-.27.02-.39.06-.12.04-.21.08-.29.13-.08.05-.14.1-.19.13l-.25-.41ZM8.48,7.92c.05.09.13.16.22.2.09.04.2.07.32.07.16,0,.3-.03.42-.11.12-.07.22-.17.3-.3.07-.13.11-.28.11-.44l.1.42c0,.2-.06.38-.17.51-.11.14-.25.24-.41.3-.16.07-.32.1-.48.1-.18,0-.34-.04-.5-.12-.15-.08-.28-.2-.37-.35-.09-.15-.14-.34-.14-.56,0-.31.1-.56.3-.75.2-.19.48-.28.83-.28.21,0,.39.03.53.08.14.05.25.11.34.18.08.07.14.12.17.16v.33c-.15-.11-.3-.19-.45-.24-.16-.05-.32-.07-.5-.07-.16,0-.3.02-.4.07-.1.05-.18.11-.23.2-.05.08-.08.19-.08.3,0,.12.03.23.08.31"/>
  <path class="cls-4" d="M11.74,8.6h-.5v-4.34h.5v4.34ZM12.21,5.91h-1.45v-.52h1.45v.52Z"/>
  <path class="cls-4" d="M13.91,5.88c-.05-.03-.12-.04-.21-.04-.13,0-.22.04-.3.11-.07.07-.12.17-.15.29-.03.12-.04.26-.04.41h-.23c0-.26.04-.49.12-.68.08-.2.19-.36.32-.47.13-.12.26-.17.4-.17.11,0,.2.02.29.05.09.03.17.09.25.18l-.28.46c-.07-.06-.13-.1-.18-.12M13.22,8.6h-.5v-3.22h.5v3.22Z"/>
  <path class="cls-4" d="M15.48,8.6h-.5v-3.22h.5v3.22ZM14.98,3.78c.07-.07.15-.11.24-.11.1,0,.18.04.25.11.07.07.1.17.1.27s-.03.19-.1.27c-.07.08-.15.11-.25.11-.09,0-.17-.04-.24-.11-.07-.08-.1-.17-.1-.27s.04-.2.1-.27"/>
  <path class="cls-4" d="M16.53,3.78c.07-.07.15-.11.24-.11s.18.04.24.11.1.16.1.27c0,.1-.03.19-.1.27-.06.07-.15.11-.24.11s-.17-.04-.24-.11c-.07-.07-.1-.16-.1-.27,0-.11.03-.2.1-.27M16.07,9.53c.05.03.11.05.18.05.07,0,.13-.02.17-.06.04-.04.08-.11.1-.2.02-.09.03-.21.03-.36v-3.57h.5v3.64c0,.23-.03.43-.1.6-.06.17-.16.3-.29.39-.13.09-.28.13-.45.13-.08,0-.16-.01-.23-.03-.07-.02-.13-.05-.18-.1-.06-.04-.1-.09-.14-.15l.28-.46c.03.06.08.1.13.13"/>
  <path class="cls-4" d="M18.75,7.94c.1.14.26.21.46.21.15,0,.28-.03.39-.1.11-.07.2-.16.26-.28.06-.12.09-.26.09-.42v-1.96h.5v3.22h-.5v-.5c-.1.19-.22.33-.36.43-.14.1-.31.14-.5.14-.3,0-.54-.11-.72-.34-.18-.23-.27-.53-.27-.92v-2.03h.5v1.96c0,.26.05.46.16.6"/>
  <path class="cls-4" d="M25.37,8.6h-.5v-1.96c0-.27-.05-.48-.13-.61s-.23-.2-.42-.2c-.14,0-.26.03-.36.1-.1.06-.18.15-.23.28-.06.12-.08.27-.08.43v1.96h-.5v-1.96c0-.27-.05-.48-.14-.61s-.23-.2-.42-.2c-.14,0-.26.03-.36.1-.1.06-.18.15-.23.28-.06.12-.08.27-.08.43v1.96h-.5v-3.22h.5v.47c.09-.18.2-.32.33-.41.13-.09.29-.13.47-.13.2,0,.38.05.52.16s.25.25.32.44c.1-.2.23-.35.38-.45.15-.1.32-.15.52-.15s.37.05.5.15c.14.1.24.24.32.43.07.19.11.42.11.68v2.03Z"/>
  <path class="cls-4" d="M32.11,3.7v5.14l-3.34-3.89v3.65h-.54V3.46l3.34,3.89v-3.65h.54Z"/>
  <path class="cls-4" d="M32.99,5.71c.11-.09.26-.18.45-.27.19-.09.42-.13.69-.13.23,0,.43.04.6.12.17.08.3.19.4.33.09.15.14.32.14.53v2.31h-.5v-2.23c0-.11-.02-.2-.05-.28-.03-.07-.08-.13-.14-.17-.06-.04-.13-.07-.21-.09-.08-.02-.16-.03-.25-.03-.14,0-.27.02-.39.06-.12.04-.21.08-.29.13-.08.05-.14.1-.19.13l-.25-.41ZM33.39,7.92c.05.09.13.16.22.2.09.04.2.07.32.07.16,0,.3-.03.42-.11.12-.07.22-.17.3-.3.07-.13.11-.28.11-.44l.1.42c0,.2-.06.38-.17.51-.11.14-.25.24-.41.3-.16.07-.32.1-.48.1-.18,0-.34-.04-.5-.12-.15-.08-.28-.2-.37-.35-.09-.15-.14-.34-.14-.56,0-.31.1-.56.3-.75.2-.19.48-.28.83-.28.21,0,.39.03.53.08.14.05.25.11.34.18.08.07.14.12.17.16v.33c-.15-.11-.3-.19-.45-.24-.16-.05-.32-.07-.5-.07-.16,0-.3.02-.4.07-.1.05-.18.11-.23.2-.05.08-.08.19-.08.3,0,.12.03.23.08.31"/>
  <path class="cls-4" d="M36.93,6.23h-.31v-2h.31v2ZM35.88,5.07h1.78v.33h-1.78v-.33Z"/>
  <path class="cls-4" d="M38.6,8.05c.07-.07.15-.11.24-.11.1,0,.18.04.25.11.07.08.1.17.1.27s-.03.19-.1.27c-.07.08-.15.12-.25.12-.09,0-.17-.04-.24-.12-.07-.08-.1-.17-.1-.27s.04-.2.1-.27M38.6,5.39c.07-.07.15-.11.24-.11.1,0,.18.04.25.11.07.08.1.17.1.27s-.03.19-.1.27c-.07.08-.15.12-.25.12-.09,0-.17-.04-.24-.12-.07-.08-.1-.17-.1-.27s.04-.2.1-.27"/>
  <path class="cls-4" d="M81.74,4.05l1.51-.42v4.97h-.53v-4.26l-.98.32v-.62Z"/>
  <path class="cls-4" d="M85.51,8.04l-.69,1.75-.37-.15.56-1.81.5.21Z"/>
  <path class="cls-4" d="M86.87,6.94c.05.24.12.45.22.62.1.17.21.31.35.41.14.1.29.14.46.14s.33-.05.46-.14c.13-.1.25-.23.35-.41.1-.18.17-.38.22-.62.05-.24.08-.5.08-.79s-.02-.55-.08-.79c-.05-.24-.12-.45-.22-.62s-.21-.31-.35-.41c-.13-.1-.29-.14-.46-.14s-.32.05-.46.14c-.14.1-.25.23-.35.41-.1.17-.17.38-.22.62-.05.24-.08.5-.08.79s.02.55.08.79M86.47,4.85c.14-.38.33-.68.58-.89.25-.22.53-.33.85-.33s.61.11.85.33c.25.22.44.52.58.89.14.38.21.81.21,1.3s-.07.92-.21,1.3c-.14.38-.33.68-.58.89-.25.22-.53.33-.85.33s-.61-.11-.85-.33c-.25-.22-.44-.51-.58-.89-.14-.38-.21-.81-.21-1.3s.07-.92.21-1.3"/>
  <path class="cls-4" d="M92,6.13c.1-.12.18-.23.25-.35.07-.11.12-.23.16-.35.04-.12.05-.24.05-.38,0-.11-.02-.21-.06-.32-.04-.1-.09-.2-.17-.28-.07-.08-.16-.15-.27-.2-.1-.05-.22-.08-.36-.08-.19,0-.35.05-.49.14-.14.1-.24.23-.31.41-.07.18-.11.39-.11.64h-.53c0-.35.06-.66.17-.92.11-.26.28-.47.49-.62.22-.15.48-.22.78-.22.24,0,.45.05.63.14.18.09.32.21.44.35.11.14.2.3.25.46.05.16.08.32.08.47,0,.25-.06.5-.16.75-.11.25-.25.47-.42.66l-1.4,1.59h2.01v.56h-3.11l2.09-2.47Z"/>
  <path class="cls-4" d="M6.25,13.2l-1.91,2.3,2,2.6h-.66l-1.99-2.59,1.9-2.31h.66ZM3.86,18.1h-.54v-4.9h.54v4.9Z"/>
  <path class="cls-4" d="M6.76,15.21c.11-.09.26-.18.45-.27.19-.09.42-.13.69-.13.23,0,.43.04.6.12.17.08.3.19.4.33.09.15.14.32.14.53v2.31h-.5v-2.23c0-.11-.02-.2-.05-.28-.03-.07-.08-.13-.14-.17-.06-.04-.13-.07-.21-.09-.08-.02-.16-.03-.25-.03-.14,0-.27.02-.39.06-.12.04-.21.08-.29.13-.08.05-.14.1-.19.13l-.25-.41ZM7.16,17.42c.05.09.13.16.22.2.09.04.2.07.32.07.16,0,.3-.03.42-.11.12-.07.22-.17.3-.3.07-.13.11-.28.11-.44l.1.42c0,.2-.06.38-.17.51-.11.14-.25.24-.41.3-.16.07-.32.1-.48.1-.18,0-.34-.04-.5-.12-.15-.08-.28-.2-.37-.35-.09-.15-.14-.34-.14-.56,0-.31.1-.56.3-.75.2-.19.48-.28.83-.28.21,0,.39.03.53.08.14.05.25.11.34.18.08.07.14.12.17.16v.33c-.15-.11-.3-.19-.45-.24-.16-.05-.32-.07-.5-.07-.16,0-.3.02-.4.07-.1.05-.18.11-.23.2-.05.08-.08.19-.08.3,0,.12.03.23.08.31"/>
  <path class="cls-4" d="M10.39,18.1h-.5v-5.46h.5v5.46Z"/>
  <path class="cls-4" d="M11.93,18.1h-.5v-3.22h.5v3.22ZM11.44,13.28c.07-.07.15-.11.24-.11.1,0,.18.04.25.11.07.07.1.17.1.27s-.03.19-.1.27c-.07.08-.15.11-.25.11-.09,0-.17-.04-.24-.11-.07-.08-.1-.17-.1-.27s.03-.2.1-.27"/>
  <path class="cls-4" d="M12.99,13.28c.07-.07.15-.11.24-.11s.18.04.24.11.1.16.1.27c0,.1-.03.19-.1.27-.06.07-.15.11-.24.11s-.17-.04-.24-.11c-.07-.07-.1-.16-.1-.27,0-.11.03-.2.1-.27M12.52,19.03c.05.03.11.05.18.05.07,0,.13-.02.17-.06.04-.04.08-.11.1-.2.02-.09.03-.21.03-.36v-3.57h.5v3.64c0,.23-.03.43-.1.6-.06.17-.16.3-.29.39-.13.09-.28.13-.45.13-.08,0-.16-.01-.23-.03-.07-.02-.13-.05-.18-.1-.06-.04-.1-.09-.14-.15l.28-.46c.03.06.08.1.13.13"/>
  <path class="cls-4" d="M15.21,17.44c.1.14.26.21.46.21.15,0,.28-.03.39-.1.11-.07.2-.16.26-.28.06-.12.09-.26.09-.42v-1.96h.5v3.22h-.5v-.5c-.1.19-.22.33-.36.43-.14.1-.31.14-.5.14-.3,0-.54-.11-.72-.34-.18-.23-.27-.53-.27-.92v-2.03h.5v1.96c0,.26.05.46.16.6"/>
  <path class="cls-4" d="M21.82,18.1h-.5v-1.96c0-.27-.05-.48-.13-.61s-.23-.2-.42-.2c-.14,0-.26.03-.36.1-.1.06-.18.15-.23.28-.06.12-.08.27-.08.43v1.96h-.5v-1.96c0-.27-.05-.48-.14-.61s-.23-.2-.42-.2c-.14,0-.26.03-.36.1-.1.06-.18.15-.23.28-.06.12-.08.27-.08.43v1.96h-.5v-3.22h.5v.47c.09-.18.2-.32.33-.41.13-.09.29-.13.47-.13.2,0,.38.05.52.16s.25.25.32.44c.1-.2.23-.35.38-.45.15-.1.32-.15.52-.15s.37.05.5.15c.14.1.24.24.32.43.07.19.11.42.11.68v2.03Z"/>
  <path class="cls-4" d="M27.62,13.2l-1.91,2.3,2,2.6h-.66l-1.99-2.59,1.9-2.31h.66ZM25.22,18.1h-.54v-4.9h.54v4.9Z"/>
  <path class="cls-4" d="M29.03,15.73h-.31v-2h.31v2ZM27.98,14.57h1.78v.33h-1.78v-.33Z"/>
  <path class="cls-4" d="M30.71,17.55c.07-.07.15-.11.24-.11.1,0,.18.04.25.11.07.08.1.17.1.27s-.03.19-.1.27c-.07.08-.15.12-.25.12-.09,0-.17-.04-.24-.12-.07-.08-.1-.17-.1-.27s.04-.2.1-.27M30.71,14.89c.07-.07.15-.11.24-.11.1,0,.18.04.25.11.07.08.1.17.1.27s-.03.19-.1.27c-.07.08-.15.12-.25.12-.09,0-.17-.04-.24-.12-.07-.08-.1-.17-.1-.27s.04-.2.1-.27"/>
  <path class="cls-4" d="M82.24,16.44c.05.24.12.45.22.62.1.17.21.31.35.41.14.1.29.14.46.14s.33-.05.46-.14c.13-.1.25-.23.35-.41.1-.18.17-.38.22-.62.05-.24.08-.5.08-.79s-.02-.55-.08-.79c-.05-.24-.12-.45-.22-.62s-.21-.31-.35-.41c-.13-.1-.29-.14-.46-.14s-.32.05-.46.14c-.14.1-.25.23-.35.41-.1.17-.17.38-.22.62-.05.24-.08.5-.08.79s.02.55.08.79M81.84,14.35c.14-.38.33-.68.58-.89.25-.22.53-.33.85-.33s.61.11.85.33c.25.22.44.52.58.89.14.38.21.81.21,1.3s-.07.92-.21,1.3c-.14.38-.33.68-.58.89-.25.22-.53.33-.85.33s-.61-.11-.85-.33c-.25-.22-.44-.51-.58-.89-.14-.38-.21-.81-.21-1.3s.07-.92.21-1.3"/>
  <path class="cls-4" d="M86.6,17.54l-.69,1.75-.37-.15.56-1.81.5.21Z"/>
  <path class="cls-4" d="M87.6,13.55l1.51-.42v4.97h-.53v-4.26l-.98.32v-.62Z"/>
  <path class="cls-4" d="M91.53,15.3c.14,0,.27-.02.38-.07.11-.04.2-.11.28-.18.08-.08.13-.17.17-.27.04-.1.06-.21.06-.33,0-.15-.03-.29-.08-.41-.05-.12-.12-.21-.22-.28-.1-.07-.22-.1-.37-.1-.21,0-.38.07-.52.21-.14.14-.22.32-.22.54h-.51c0-.26.05-.48.16-.67.11-.19.25-.34.44-.45.19-.11.4-.16.64-.16.25,0,.47.06.65.18.18.12.32.28.42.48.1.2.15.41.15.64s-.06.44-.18.63c-.12.19-.29.34-.5.45-.21.11-.46.17-.75.17v-.38ZM91.14,18.07c-.17-.07-.32-.17-.44-.29-.12-.12-.22-.27-.28-.43-.07-.17-.1-.34-.1-.54h.54c0,.15.04.29.11.41.07.12.18.22.31.29.13.07.28.11.45.11s.31-.04.44-.11c.12-.07.22-.17.29-.3.07-.13.1-.28.1-.46,0-.15-.03-.28-.08-.4-.05-.11-.12-.21-.22-.29-.09-.08-.2-.13-.32-.17-.12-.04-.25-.06-.4-.06v-.38c.21,0,.41.03.6.08.19.05.35.13.5.24.14.11.26.25.34.42.08.17.12.38.12.62,0,.27-.06.52-.18.72-.12.2-.28.36-.49.48s-.44.17-.71.17c-.21,0-.41-.03-.58-.1"/>
  <path class="cls-4" d="M6.25,22.7l-1.91,2.3,2,2.6h-.66l-1.99-2.59,1.9-2.31h.66ZM3.86,27.6h-.54v-4.9h.54v4.9Z"/>
  <path class="cls-4" d="M6.76,24.71c.11-.09.26-.18.45-.27.19-.09.42-.13.69-.13.23,0,.43.04.6.11.17.08.3.19.4.33.09.14.14.32.14.53v2.31h-.5v-2.23c0-.11-.02-.2-.05-.28-.03-.07-.08-.13-.14-.17-.06-.04-.13-.07-.21-.09-.08-.02-.16-.03-.25-.03-.14,0-.27.02-.39.05-.12.04-.21.08-.29.13-.08.05-.14.1-.19.13l-.25-.41ZM7.16,26.92c.05.09.13.16.22.2.09.04.2.07.32.07.16,0,.3-.04.42-.11.12-.07.22-.17.3-.3.07-.13.11-.28.11-.44l.1.42c0,.2-.06.38-.17.51-.11.13-.25.23-.41.3-.16.07-.32.1-.48.1-.18,0-.34-.04-.5-.12-.15-.08-.28-.2-.37-.35-.09-.15-.14-.34-.14-.56,0-.31.1-.56.3-.75.2-.19.48-.28.83-.28.21,0,.39.03.53.08.14.05.25.12.34.18.08.07.14.12.17.16v.33c-.15-.11-.3-.19-.45-.24-.16-.05-.32-.07-.5-.07-.16,0-.3.02-.4.07-.1.05-.18.11-.23.2-.05.08-.08.18-.08.3,0,.12.03.23.08.32"/>
  <path class="cls-4" d="M10.39,27.6h-.5v-5.46h.5v5.46Z"/>
  <path class="cls-4" d="M11.69,26.59c.09.17.2.31.35.41.15.1.32.15.51.15.15,0,.3-.03.44-.08.14-.05.25-.12.36-.22.1-.09.17-.19.21-.29v.7c-.1.13-.25.23-.43.31-.19.07-.38.11-.58.11-.28,0-.54-.07-.76-.22-.23-.14-.41-.34-.54-.6-.13-.26-.2-.54-.2-.87s.07-.61.2-.87c.13-.25.31-.45.54-.6.23-.14.48-.22.76-.22.2,0,.39.04.58.11.19.07.33.17.43.31v.7c-.04-.11-.11-.21-.21-.29-.1-.09-.22-.16-.36-.21-.14-.05-.28-.08-.44-.08-.19,0-.36.05-.51.15-.15.1-.27.24-.35.41s-.13.38-.13.6.04.42.13.6"/>
  <path class="cls-4" d="M14.94,27.6h-.5v-3.22h.5v3.22ZM14.45,22.78c.07-.07.15-.11.24-.11.1,0,.18.04.25.11s.1.17.1.27-.03.19-.1.27c-.07.08-.15.12-.25.12-.09,0-.17-.04-.24-.12-.07-.08-.1-.17-.1-.27,0-.11.03-.2.1-.27"/>
  <path class="cls-4" d="M16,22.78c.07-.07.15-.11.24-.11s.18.04.24.11.1.16.1.27c0,.1-.03.19-.1.27-.06.07-.15.11-.24.11s-.17-.04-.24-.11c-.07-.07-.1-.16-.1-.27,0-.11.03-.2.1-.27M15.53,28.53c.05.03.11.05.18.05.07,0,.13-.02.17-.06.04-.04.08-.11.1-.2.02-.09.03-.22.03-.36v-3.57h.5v3.64c0,.23-.03.43-.1.6-.06.17-.16.3-.29.39-.13.09-.28.13-.45.13-.08,0-.16-.01-.23-.03-.07-.02-.13-.05-.18-.1-.06-.04-.1-.09-.14-.15l.28-.46c.03.06.08.1.13.13"/>
  <path class="cls-4" d="M18.22,26.94c.1.14.26.21.46.21.15,0,.28-.03.39-.1.11-.07.2-.16.26-.28.06-.12.09-.26.09-.42v-1.96h.5v3.22h-.5v-.5c-.1.19-.22.33-.36.43-.14.09-.31.14-.5.14-.3,0-.54-.11-.72-.34-.18-.23-.27-.53-.27-.92v-2.03h.5v1.96c0,.26.05.46.16.6"/>
  <path class="cls-4" d="M24.83,27.6h-.5v-1.96c0-.27-.05-.48-.13-.61-.09-.13-.23-.2-.42-.2-.14,0-.26.03-.36.09-.1.06-.18.15-.23.28-.06.12-.08.27-.08.43v1.96h-.5v-1.96c0-.27-.05-.48-.14-.61-.09-.13-.23-.2-.42-.2-.14,0-.26.03-.36.09-.1.06-.18.15-.23.28-.06.12-.08.27-.08.43v1.96h-.5v-3.22h.5v.47c.09-.18.2-.32.33-.41.13-.09.29-.13.47-.13.2,0,.38.05.52.16.14.11.25.25.32.44.1-.2.23-.35.38-.45.15-.1.32-.15.52-.15s.37.05.5.15c.14.1.24.24.32.43.07.19.11.42.11.68v2.03Z"/>
  <path class="cls-4" d="M28.24,26.15c.15.29.35.52.6.68.25.16.52.24.81.24.21,0,.4-.03.58-.09.17-.06.33-.15.48-.25.14-.11.26-.24.37-.38v.78c-.18.18-.39.32-.61.41-.22.09-.49.13-.81.13-.31,0-.59-.06-.86-.19-.27-.12-.5-.3-.7-.52-.2-.23-.36-.49-.47-.8-.11-.31-.17-.64-.17-1.01s.06-.7.17-1.01c.11-.31.27-.58.47-.8.2-.22.43-.4.7-.52.27-.12.55-.19.86-.19.32,0,.59.04.81.13.22.09.42.22.61.41v.78c-.1-.14-.22-.27-.37-.38-.14-.11-.3-.19-.48-.26-.18-.06-.37-.09-.58-.09-.29,0-.56.08-.81.25-.25.16-.45.39-.6.68-.15.29-.23.62-.23,1s.08.71.23,1"/>
  <path class="cls-4" d="M31.89,24.71c.11-.09.26-.18.45-.27.19-.09.42-.13.69-.13.23,0,.43.04.6.11.17.08.3.19.4.33.09.14.14.32.14.53v2.31h-.5v-2.23c0-.11-.02-.2-.05-.28-.03-.07-.08-.13-.14-.17-.06-.04-.13-.07-.21-.09-.08-.02-.16-.03-.25-.03-.14,0-.27.02-.39.05-.12.04-.21.08-.29.13-.08.05-.14.1-.19.13l-.25-.41ZM32.29,26.92c.05.09.13.16.22.2.09.04.2.07.32.07.16,0,.3-.04.42-.11.12-.07.22-.17.3-.3.07-.13.11-.28.11-.44l.1.42c0,.2-.06.38-.17.51-.11.13-.25.23-.41.3-.16.07-.32.1-.48.1-.18,0-.34-.04-.5-.12-.15-.08-.28-.2-.37-.35-.09-.15-.14-.34-.14-.56,0-.31.1-.56.3-.75.2-.19.48-.28.83-.28.21,0,.39.03.53.08.14.05.25.12.34.18.08.07.14.12.17.16v.33c-.15-.11-.3-.19-.45-.24-.16-.05-.32-.07-.5-.07-.16,0-.3.02-.4.07-.1.05-.18.11-.23.2-.05.08-.08.18-.08.3,0,.12.03.23.08.32"/>
  <path class="cls-4" d="M35.83,23.83c.06-.07.1-.14.14-.2.04-.07.07-.14.09-.2.02-.07.03-.14.03-.22,0-.06-.01-.12-.03-.18-.02-.06-.05-.11-.1-.16s-.09-.09-.16-.12c-.06-.03-.13-.04-.21-.04-.11,0-.2.03-.28.08-.08.06-.14.14-.18.24-.04.11-.06.23-.06.37h-.31c0-.2.03-.38.1-.54.07-.15.16-.27.29-.36.13-.09.28-.13.45-.13.14,0,.27.03.37.08.1.05.19.12.25.2.07.08.12.17.15.27.03.1.05.19.05.27,0,.15-.03.29-.1.44-.06.14-.15.27-.25.39l-.82.93h1.17v.33h-1.81l1.22-1.44Z"/>
  <path class="cls-4" d="M37.92,25.23h-.31v-2h.31v2ZM36.87,24.07h1.78v.33h-1.78v-.33Z"/>
  <path class="cls-4" d="M39.59,27.05c.07-.08.15-.11.24-.11.1,0,.18.04.25.11.07.07.1.17.1.27s-.03.19-.1.27c-.07.08-.15.12-.25.12-.09,0-.17-.04-.24-.12-.07-.08-.1-.17-.1-.27s.04-.2.1-.27M39.59,24.39c.07-.07.15-.11.24-.11.1,0,.18.04.25.11.07.07.1.17.1.27s-.03.19-.1.27c-.07.08-.15.12-.25.12-.09,0-.17-.04-.24-.12-.07-.08-.1-.17-.1-.27s.04-.2.1-.27"/>
  <path class="cls-4" d="M78.82,24.8c.14,0,.27-.02.38-.07.11-.05.2-.11.28-.18.08-.08.13-.17.17-.27.04-.1.06-.21.06-.33,0-.15-.03-.29-.08-.41-.05-.12-.12-.21-.22-.28-.1-.07-.22-.1-.37-.1-.21,0-.38.07-.52.21-.14.14-.22.32-.22.54h-.51c0-.26.05-.48.16-.67.11-.19.25-.34.44-.45.19-.11.4-.16.64-.16.25,0,.47.06.65.18.18.12.32.28.42.48.1.2.15.41.15.64s-.06.44-.18.63c-.12.19-.29.34-.5.45-.21.11-.46.17-.75.17v-.38ZM78.43,27.57c-.17-.07-.32-.17-.44-.29-.12-.12-.22-.27-.28-.43-.07-.16-.1-.34-.1-.53h.54c0,.15.04.29.11.41.07.12.18.22.31.29.13.07.28.11.45.11s.31-.04.44-.11c.12-.07.22-.17.29-.3.07-.13.1-.28.1-.46,0-.15-.03-.28-.08-.4-.05-.11-.12-.21-.22-.29-.09-.08-.2-.13-.32-.17-.12-.04-.25-.06-.4-.06v-.38c.21,0,.41.03.6.08.19.05.35.13.5.24.14.11.26.25.34.42.08.17.12.38.12.62,0,.27-.06.52-.18.72-.12.21-.28.36-.49.48-.21.11-.44.17-.71.17-.21,0-.41-.03-.58-.1"/>
  <path class="cls-4" d="M82.88,25.13c.1-.12.18-.23.25-.35.07-.11.12-.23.16-.35.04-.12.05-.24.05-.37,0-.11-.02-.21-.06-.32-.04-.1-.09-.2-.17-.28-.07-.08-.16-.15-.27-.2-.1-.05-.22-.08-.36-.08-.19,0-.35.05-.49.14-.14.1-.24.23-.31.41-.07.18-.11.39-.11.64h-.53c0-.35.06-.66.17-.92.11-.26.28-.47.49-.62.22-.15.48-.22.78-.22.24,0,.45.05.63.14.18.09.32.21.44.35.11.14.2.29.25.46.05.17.08.32.08.47,0,.25-.06.5-.16.75-.11.25-.25.47-.42.67l-1.4,1.59h2.01v.56h-3.11l2.09-2.47Z"/>
  <path class="cls-4" d="M85.69,27.04l-.69,1.75-.37-.15.56-1.81.5.21Z"/>
  <path class="cls-4" d="M87.15,26.58c.09.17.2.31.35.4.15.1.32.15.51.15s.36-.05.51-.15c.15-.1.27-.23.35-.4.09-.17.13-.37.13-.59s-.04-.42-.13-.6c-.09-.17-.2-.31-.35-.41-.15-.1-.32-.15-.51-.15s-.36.05-.51.15c-.15.1-.27.24-.35.41-.09.18-.13.38-.13.6s.04.42.13.59M88.95,22.7l-1.38,2.02-.04-.04c.08-.12.18-.19.29-.23.11-.04.24-.06.38-.06.18,0,.35.04.51.12.16.08.3.19.42.34.12.14.21.31.28.51.07.19.1.4.1.63,0,.34-.07.63-.2.88-.13.25-.31.45-.54.59-.23.14-.48.21-.76.21s-.54-.07-.76-.21c-.23-.14-.41-.34-.54-.59-.13-.25-.2-.55-.2-.88,0-.2.03-.39.08-.56.05-.17.12-.32.2-.45l1.49-2.28h.67Z"/>
  <path class="cls-4" d="M93,26.73c-.08.21-.19.38-.33.52-.14.14-.31.25-.49.31-.18.07-.38.11-.6.11-.27,0-.5-.05-.7-.14-.2-.09-.37-.22-.51-.37-.14-.16-.26-.33-.36-.51l.45-.34c.07.14.16.27.27.4.11.12.24.22.39.3.15.08.3.11.46.11.21,0,.39-.05.54-.14.15-.09.26-.22.34-.39.08-.17.12-.36.12-.59s-.04-.42-.13-.59c-.09-.17-.2-.3-.35-.39-.15-.09-.32-.14-.51-.14-.14,0-.26.01-.38.04-.12.02-.23.07-.35.13-.12.06-.25.15-.4.27l.58-2.61h2.08v.53h-1.66l-.3,1.3c.11-.06.21-.11.33-.14.11-.03.22-.05.33-.05.25,0,.48.07.68.21.2.14.36.33.47.58.11.25.17.53.17.86,0,.28-.04.53-.12.74"/>
  <path class="cls-4" d="M3.61,37.1h-.54l.54-5.14,1.76,3.55,1.76-3.55.54,5.14h-.54l-.33-3.31-1.44,2.86-1.44-2.86-.33,3.31Z"/>
  <path class="cls-4" d="M8.3,34.21c.11-.09.26-.18.45-.27.19-.09.42-.13.69-.13.23,0,.43.04.6.11.17.08.3.19.4.33.09.14.14.32.14.53v2.31h-.5v-2.23c0-.11-.02-.2-.05-.28-.03-.07-.08-.13-.14-.17-.06-.04-.13-.07-.21-.09-.08-.02-.16-.03-.25-.03-.14,0-.27.02-.39.05-.12.04-.21.08-.29.13-.08.05-.14.1-.19.13l-.25-.41ZM8.7,36.42c.05.09.13.16.22.2.09.04.2.07.32.07.16,0,.3-.04.42-.11.12-.07.22-.17.3-.3.07-.13.11-.28.11-.44l.1.42c0,.2-.06.38-.17.51-.11.13-.25.23-.41.3-.16.07-.32.1-.48.1-.18,0-.34-.04-.5-.12-.15-.08-.28-.2-.37-.35-.09-.15-.14-.34-.14-.56,0-.31.1-.56.3-.75.2-.19.48-.28.83-.28.21,0,.39.03.53.08.14.05.25.12.34.18.08.07.14.12.17.16v.33c-.15-.11-.3-.19-.45-.24-.16-.05-.32-.07-.5-.07-.16,0-.3.02-.4.07-.1.05-.18.11-.23.2-.05.08-.08.18-.08.3,0,.12.03.23.08.32"/>
  <path class="cls-4" d="M11.82,36.12c.09.17.21.3.36.39.15.09.31.13.49.13.15,0,.29-.04.44-.13.14-.09.26-.22.35-.39.09-.17.14-.38.14-.63,0-.19-.03-.35-.08-.49-.05-.14-.13-.26-.22-.36-.09-.1-.19-.17-.3-.22-.11-.05-.22-.08-.33-.08-.18,0-.34.04-.49.13-.15.09-.27.22-.36.39-.09.17-.14.38-.14.63s.05.46.14.63M11.74,37.31c0,.15.04.3.11.43.07.13.18.24.32.32.14.08.3.12.49.12.15,0,.29-.04.43-.12.14-.08.26-.2.36-.37.09-.17.14-.39.14-.66v-3.15h.5v3.15c0,.37-.07.68-.21.93-.14.25-.32.44-.53.56-.22.13-.45.19-.69.19-.28,0-.53-.06-.75-.18-.22-.12-.39-.28-.51-.49-.12-.21-.18-.46-.18-.73h.51ZM11.37,34.59c.13-.25.3-.44.52-.58.22-.14.46-.2.72-.2.24,0,.46.07.64.2.18.13.32.33.42.58.1.25.15.55.15.9s-.05.64-.15.9c-.1.25-.25.45-.42.58-.18.13-.39.2-.64.2-.26,0-.5-.07-.72-.2-.22-.14-.39-.33-.52-.58-.13-.25-.2-.55-.2-.9s.07-.65.2-.9"/>
  <path class="cls-4" d="M16.72,34.54c-.1-.14-.26-.2-.46-.2-.15,0-.28.03-.39.1-.11.07-.2.16-.26.28-.06.12-.09.26-.09.42v1.96h-.5v-3.22h.5v.5c.1-.2.22-.34.36-.43.14-.09.31-.14.5-.14.31,0,.55.11.73.34.18.23.27.53.27.92v2.03h-.5v-1.96c0-.27-.05-.47-.16-.6"/>
  <path class="cls-4" d="M18.73,36.96c-.21-.14-.37-.34-.49-.59-.12-.25-.17-.54-.17-.88s.06-.63.18-.88c.12-.25.29-.45.5-.59.22-.14.47-.21.75-.21s.53.07.73.2c.2.13.36.32.47.57.11.25.16.54.16.88,0,.03,0,.07,0,.1,0,.03,0,.06,0,.07h-2.48v-.48h2.08l-.2.32s.02-.06.04-.11c.01-.05.02-.09.02-.12,0-.19-.03-.36-.1-.5-.07-.14-.17-.25-.29-.33-.12-.08-.27-.12-.43-.12-.19,0-.36.04-.5.14-.14.09-.24.22-.31.39-.07.17-.11.38-.12.63,0,.25.04.47.11.64.07.18.18.31.31.41.14.09.31.14.5.14s.37-.05.52-.14c.15-.1.28-.24.38-.44l.41.29c-.15.27-.34.47-.57.61-.23.14-.5.21-.81.21-.27,0-.51-.07-.71-.21"/>
  <path class="cls-4" d="M21.29,34.41v-.52h2.52l-1.8,2.69h1.67v.52h-2.58l1.79-2.69h-1.61Z"/>
  <path class="cls-4" d="M24.97,37.1h-.5v-3.22h.5v3.22ZM24.48,32.28c.07-.07.15-.11.24-.11.1,0,.18.04.25.11.07.07.1.17.1.27s-.03.19-.1.27c-.07.08-.15.12-.25.12-.09,0-.17-.04-.24-.12-.07-.08-.1-.17-.1-.27,0-.11.03-.2.1-.27"/>
  <path class="cls-4" d="M26.03,32.28c.07-.07.15-.11.24-.11s.18.04.24.11.1.16.1.27c0,.1-.03.19-.1.27-.06.07-.15.11-.24.11s-.17-.04-.24-.11c-.07-.07-.1-.16-.1-.27,0-.11.03-.2.1-.27M25.56,38.03c.05.03.11.05.18.05.07,0,.13-.02.17-.06.04-.04.08-.11.1-.2.02-.09.03-.22.03-.36v-3.57h.5v3.64c0,.23-.03.43-.1.6-.06.17-.16.3-.29.39-.13.09-.28.13-.45.13-.08,0-.16-.01-.23-.03-.07-.02-.13-.05-.18-.1-.06-.04-.1-.09-.14-.15l.28-.46c.03.06.08.1.13.13"/>
  <path class="cls-4" d="M28.25,36.44c.1.14.26.21.46.21.15,0,.28-.03.39-.1.11-.07.2-.16.26-.28.06-.12.09-.26.09-.42v-1.96h.5v3.22h-.5v-.5c-.1.19-.22.33-.36.43-.14.09-.31.14-.5.14-.3,0-.54-.11-.72-.34-.18-.23-.27-.53-.27-.92v-2.03h.5v1.96c0,.26.05.46.16.6"/>
  <path class="cls-4" d="M34.86,37.1h-.5v-1.96c0-.27-.05-.48-.13-.61-.09-.13-.23-.2-.42-.2-.14,0-.26.03-.36.09-.1.06-.18.15-.23.28-.06.12-.08.27-.08.43v1.96h-.5v-1.96c0-.27-.05-.48-.14-.61-.09-.13-.23-.2-.42-.2-.14,0-.26.03-.36.09-.1.06-.18.15-.23.28-.06.12-.08.27-.08.43v1.96h-.5v-3.22h.5v.47c.09-.18.2-.32.33-.41.13-.09.29-.13.47-.13.2,0,.38.05.52.16.14.11.25.25.32.44.1-.2.23-.35.38-.45.15-.1.32-.15.52-.15s.37.05.5.15c.14.1.24.24.32.43.07.19.11.42.11.68v2.03Z"/>
  <path class="cls-4" d="M38.01,37.1h-.54l.54-5.14,1.76,3.55,1.76-3.55.54,5.14h-.54l-.33-3.31-1.44,2.86-1.44-2.86-.33,3.31Z"/>
  <path class="cls-4" d="M43.19,36.12c.09.17.21.3.36.39.15.09.31.13.49.13.15,0,.29-.04.44-.13.14-.09.26-.22.35-.39.09-.17.14-.38.14-.63,0-.19-.03-.35-.08-.49-.05-.14-.13-.26-.22-.36-.09-.1-.19-.17-.3-.22-.11-.05-.22-.08-.33-.08-.18,0-.34.04-.49.13-.15.09-.27.22-.36.39-.09.17-.14.38-.14.63s.05.46.14.63M43.12,37.31c0,.15.04.3.11.43.07.13.18.24.32.32.14.08.3.12.49.12.15,0,.29-.04.43-.12.14-.08.26-.2.36-.37.09-.17.14-.39.14-.66v-3.15h.5v3.15c0,.37-.07.68-.21.93-.14.25-.32.44-.53.56-.22.13-.45.19-.69.19-.28,0-.53-.06-.75-.18-.22-.12-.39-.28-.51-.49-.12-.21-.18-.46-.18-.73h.51ZM42.74,34.59c.13-.25.3-.44.52-.58.22-.14.46-.2.72-.2.24,0,.46.07.64.2.18.13.32.33.42.58.1.25.15.55.15.9s-.05.64-.15.9c-.1.25-.25.45-.42.58-.18.13-.39.2-.64.2-.26,0-.5-.07-.72-.2-.22-.14-.39-.33-.52-.58-.13-.25-.2-.55-.2-.9s.07-.65.2-.9"/>
  <path class="cls-4" d="M47.21,33.33c.06-.07.1-.14.14-.2.04-.07.07-.14.09-.2.02-.07.03-.14.03-.22,0-.06-.01-.12-.03-.18-.02-.06-.05-.11-.1-.16s-.09-.09-.16-.12c-.06-.03-.13-.04-.21-.04-.11,0-.2.03-.28.08-.08.06-.14.14-.18.24-.04.11-.06.23-.06.37h-.31c0-.2.03-.38.1-.54.07-.15.16-.27.29-.36.13-.09.28-.13.45-.13.14,0,.27.03.37.08.1.05.19.12.25.2.07.08.12.17.15.27.03.1.05.19.05.27,0,.15-.03.29-.1.44-.06.14-.15.27-.25.39l-.82.93h1.17v.33h-1.81l1.22-1.44Z"/>
  <path class="cls-4" d="M49.29,34.73h-.31v-2h.31v2ZM48.25,33.57h1.78v.33h-1.78v-.33Z"/>
  <path class="cls-4" d="M50.97,36.55c.07-.08.15-.11.24-.11.1,0,.18.04.25.11.07.07.1.17.1.27s-.03.19-.1.27c-.07.08-.15.12-.25.12-.09,0-.17-.04-.24-.12-.07-.08-.1-.17-.1-.27s.04-.2.1-.27M50.97,33.89c.07-.07.15-.11.24-.11.1,0,.18.04.25.11.07.07.1.17.1.27s-.03.19-.1.27c-.07.08-.15.12-.25.12-.09,0-.17-.04-.24-.12-.07-.08-.1-.17-.1-.27s.04-.2.1-.27"/>
  <path class="cls-4" d="M82.08,32.55l1.51-.42v4.97h-.53v-4.26l-.98.32v-.62Z"/>
  <path class="cls-4" d="M85.85,36.54l-.69,1.75-.37-.15.56-1.81.5.21Z"/>
  <path class="cls-4" d="M87.94,34.3c.14,0,.27-.02.38-.07.11-.05.2-.11.28-.18.08-.08.13-.17.17-.27.04-.1.06-.21.06-.33,0-.15-.03-.29-.08-.41-.05-.12-.12-.21-.22-.28-.1-.07-.22-.1-.37-.1-.21,0-.38.07-.52.21-.14.14-.22.32-.22.54h-.51c0-.26.05-.48.16-.67.11-.19.25-.34.44-.45.19-.11.4-.16.64-.16.25,0,.47.06.65.18.18.12.32.28.42.48.1.2.15.41.15.64s-.06.44-.18.63c-.12.19-.29.34-.5.45-.21.11-.46.17-.75.17v-.38ZM87.55,37.07c-.17-.07-.32-.17-.44-.29-.12-.12-.22-.27-.28-.43-.07-.16-.1-.34-.1-.53h.54c0,.15.04.29.11.41.07.12.18.22.31.29.13.07.28.11.45.11s.31-.04.44-.11c.12-.07.22-.17.29-.3.07-.13.1-.28.1-.46,0-.15-.03-.28-.08-.4-.05-.11-.12-.21-.22-.29-.09-.08-.2-.13-.32-.17-.12-.04-.25-.06-.4-.06v-.38c.21,0,.41.03.6.08.19.05.35.13.5.24.14.11.26.25.34.42.08.17.12.38.12.62,0,.27-.06.52-.18.72-.12.21-.28.36-.49.48-.21.11-.44.17-.71.17-.21,0-.41-.03-.58-.1"/>
  <path class="cls-4" d="M92,34.63c.1-.12.18-.23.25-.35.07-.11.12-.23.16-.35.04-.12.05-.24.05-.37,0-.11-.02-.21-.06-.32-.04-.1-.09-.2-.17-.28-.07-.08-.16-.15-.27-.2-.1-.05-.22-.08-.36-.08-.19,0-.35.05-.49.14-.14.1-.24.23-.31.41-.07.18-.11.39-.11.64h-.53c0-.35.06-.66.17-.92.11-.26.28-.47.49-.62.22-.15.48-.22.78-.22.24,0,.45.05.63.14.18.09.32.21.44.35.11.14.2.29.25.46.05.17.08.32.08.47,0,.25-.06.5-.16.75-.11.25-.25.47-.42.67l-1.4,1.59h2.01v.56h-3.11l2.09-2.47Z"/>
  <path class="cls-4" d="M6.82,46.6h-.54v-4.9h.54v4.9ZM3.62,43.66h3.02v.56h-3.02v-.56ZM3.86,46.6h-.54v-4.9h.54v4.9Z"/>
  <path class="cls-4" d="M8.24,46.6h-.5v-3.22h.5v3.22ZM7.74,41.78c.07-.07.15-.11.24-.11.1,0,.18.04.25.11s.1.17.1.27-.03.19-.1.27c-.07.08-.15.12-.25.12-.09,0-.17-.04-.24-.12-.07-.08-.1-.17-.1-.27,0-.11.04-.2.1-.27"/>
  <path class="cls-4" d="M11.8,46.6h-.5v-5.46h.5v5.46ZM9.51,45.62c.09.17.21.3.36.39.15.09.32.13.49.13.15,0,.29-.04.43-.13.14-.09.26-.22.35-.39.09-.17.14-.38.14-.63s-.05-.46-.14-.63c-.09-.17-.21-.3-.35-.39-.14-.09-.29-.13-.43-.13-.18,0-.34.04-.49.13-.15.09-.27.22-.36.39-.09.17-.13.38-.13.63s.04.46.13.63M9.06,44.09c.13-.25.3-.44.52-.58.22-.14.46-.2.72-.2.24,0,.46.07.64.2.18.14.32.33.43.58.1.25.15.55.15.9s-.05.65-.15.9c-.1.25-.24.44-.43.58-.18.13-.39.2-.64.2-.26,0-.5-.07-.72-.2-.22-.14-.39-.33-.52-.58s-.19-.55-.19-.9.06-.65.19-.9"/>
  <path class="cls-4" d="M13.75,43.88c-.05-.03-.12-.04-.21-.04-.13,0-.22.03-.3.1-.07.07-.12.17-.15.29-.03.12-.04.26-.04.41h-.23c0-.26.04-.49.12-.68.08-.2.19-.35.32-.47.13-.12.26-.17.4-.17.11,0,.2.02.29.05.09.03.17.09.25.18l-.28.46c-.07-.06-.13-.1-.18-.12M13.06,46.6h-.5v-3.22h.5v3.22Z"/>
  <path class="cls-4" d="M14.85,45.59c.09.17.2.31.35.41.15.1.32.15.51.15s.36-.05.51-.15c.15-.1.27-.24.35-.41.09-.17.13-.37.13-.6s-.04-.42-.13-.6c-.09-.17-.2-.31-.35-.41-.15-.1-.32-.15-.51-.15s-.36.05-.51.15c-.15.1-.27.24-.35.41s-.13.38-.13.6.04.42.13.6M14.41,44.13c.13-.25.31-.45.54-.6.23-.14.48-.22.76-.22s.54.07.76.22c.23.14.4.34.54.6.13.25.2.54.2.87s-.07.61-.2.87c-.13.25-.31.45-.54.6-.22.15-.48.22-.76.22s-.54-.07-.76-.22c-.23-.14-.41-.34-.54-.6-.13-.26-.2-.54-.2-.87s.07-.61.2-.87"/>
  <path class="cls-4" d="M18.14,45.62c.09.17.21.3.36.39.15.09.31.13.49.13.15,0,.29-.04.44-.13.14-.09.26-.22.35-.39.09-.17.14-.38.14-.63,0-.19-.03-.35-.08-.49-.05-.14-.13-.26-.22-.36-.09-.1-.19-.17-.3-.22-.11-.05-.22-.08-.33-.08-.18,0-.34.04-.49.13-.15.09-.27.22-.36.39-.09.17-.14.38-.14.63s.05.46.14.63M18.06,46.81c0,.15.04.3.11.43.07.13.18.24.32.32.14.08.3.12.49.12.15,0,.29-.04.43-.12.14-.08.26-.2.36-.37.09-.17.14-.39.14-.66v-3.15h.5v3.15c0,.37-.07.68-.21.93-.14.25-.32.44-.53.56-.22.13-.45.19-.69.19-.28,0-.53-.06-.75-.18-.22-.12-.39-.28-.51-.49-.12-.21-.18-.46-.18-.73h.51ZM17.69,44.09c.13-.25.3-.44.52-.58.22-.14.46-.2.72-.2.24,0,.46.07.64.2.18.13.32.33.42.58.1.25.15.55.15.9s-.05.64-.15.9c-.1.25-.25.45-.42.58-.18.13-.39.2-.64.2-.26,0-.5-.07-.72-.2-.22-.14-.39-.33-.52-.58-.13-.25-.2-.55-.2-.9s.07-.65.2-.9"/>
  <path class="cls-4" d="M21.58,46.46c-.21-.14-.37-.34-.49-.59-.12-.25-.17-.54-.17-.88s.06-.63.18-.88c.12-.25.29-.45.5-.59.22-.14.47-.21.75-.21s.53.07.73.2c.2.13.36.32.47.57.11.25.16.54.16.88,0,.03,0,.07,0,.1,0,.03,0,.06,0,.07h-2.48v-.48h2.08l-.2.32s.02-.06.04-.11c.01-.05.02-.09.02-.12,0-.19-.03-.36-.1-.5-.07-.14-.17-.25-.29-.33-.12-.08-.27-.12-.43-.12-.19,0-.36.04-.5.14-.14.09-.24.22-.31.39-.07.17-.11.38-.12.63,0,.25.04.47.11.64.07.18.18.31.31.41.14.09.31.14.5.14s.37-.05.52-.14c.15-.1.28-.24.38-.44l.41.29c-.15.27-.34.47-.57.61-.23.14-.5.21-.81.21-.27,0-.51-.07-.71-.21"/>
  <path class="cls-4" d="M25.97,44.04c-.1-.14-.26-.2-.46-.2-.15,0-.28.03-.39.1-.11.07-.2.16-.26.28-.06.12-.09.26-.09.42v1.96h-.5v-3.22h.5v.5c.1-.2.22-.34.36-.43.14-.09.31-.14.5-.14.31,0,.55.11.73.34.18.23.27.53.27.92v2.03h-.5v-1.96c0-.27-.05-.47-.16-.6"/>
  <path class="cls-4" d="M29.59,43.38l-1.26,1.33,1.39,1.89h-.63l-1.39-1.89,1.26-1.33h.63ZM27.89,46.6h-.5v-5.46h.5v5.46Z"/>
  <path class="cls-4" d="M29.94,43.71c.11-.09.26-.18.45-.27.19-.09.42-.13.69-.13.23,0,.43.04.6.11.17.08.3.19.4.33.09.14.14.32.14.53v2.31h-.5v-2.23c0-.11-.02-.2-.05-.28-.03-.07-.08-.13-.14-.17-.06-.04-.13-.07-.21-.09-.08-.02-.16-.03-.25-.03-.14,0-.27.02-.39.05-.12.04-.21.08-.29.13-.08.05-.14.1-.19.13l-.25-.41ZM30.34,45.92c.05.09.13.16.22.2.09.04.2.07.32.07.16,0,.3-.04.42-.11.12-.07.22-.17.3-.3.07-.13.11-.28.11-.44l.1.42c0,.2-.06.38-.17.51-.11.13-.25.23-.41.3-.16.07-.32.1-.48.1-.18,0-.34-.04-.5-.12-.15-.08-.28-.2-.37-.35-.09-.15-.14-.34-.14-.56,0-.31.1-.56.3-.75.2-.19.48-.28.83-.28.21,0,.39.03.53.08.14.05.25.12.34.18.08.07.14.12.17.16v.33c-.15-.11-.3-.19-.45-.24-.16-.05-.32-.07-.5-.07-.16,0-.3.02-.4.07-.1.05-.18.11-.23.2-.05.08-.08.18-.08.3,0,.12.03.23.08.32"/>
  <path class="cls-4" d="M34.1,43.88c-.05-.03-.12-.04-.21-.04-.13,0-.22.03-.3.1-.07.07-.12.17-.15.29-.03.12-.04.26-.04.41h-.23c0-.26.04-.49.12-.68.08-.2.19-.35.32-.47.13-.12.26-.17.4-.17.11,0,.2.02.29.05.09.03.17.09.25.18l-.28.46c-.07-.06-.13-.1-.18-.12M33.41,46.6h-.5v-3.22h.5v3.22Z"/>
  <path class="cls-4" d="M37.16,44.36c-.09-.17-.21-.3-.36-.39-.15-.09-.31-.13-.49-.13-.15,0-.29.04-.43.13-.14.09-.26.22-.35.39-.09.17-.14.38-.14.63s.05.46.14.63c.09.17.21.3.35.39.14.09.29.13.43.13.18,0,.35-.04.49-.13.15-.09.27-.22.36-.39.09-.17.14-.38.14-.63s-.05-.46-.14-.63M37.61,45.89c-.13.25-.3.45-.52.58-.22.13-.46.2-.72.2-.24,0-.45-.07-.63-.2-.18-.14-.32-.33-.43-.58s-.15-.55-.15-.9.05-.65.15-.9c.1-.25.25-.44.43-.58.18-.13.39-.2.63-.2.26,0,.5.07.72.2.22.14.39.33.52.58.13.25.2.55.2.9s-.07.64-.2.9M35.38,46.6h-.5v-5.46h.5v5.46Z"/>
  <path class="cls-4" d="M38.73,45.59c.09.17.2.31.35.41.15.1.32.15.51.15s.36-.05.51-.15c.15-.1.27-.24.35-.41.09-.17.13-.37.13-.6s-.04-.42-.13-.6c-.09-.17-.2-.31-.35-.41-.15-.1-.32-.15-.51-.15s-.36.05-.51.15c-.15.1-.27.24-.35.41s-.13.38-.13.6.04.42.13.6M38.29,44.13c.13-.25.31-.45.54-.6.23-.14.48-.22.76-.22s.54.07.76.22c.23.14.4.34.54.6.13.25.2.54.2.87s-.07.61-.2.87c-.13.25-.31.45-.54.6-.22.15-.48.22-.76.22s-.54-.07-.76-.22c-.23-.14-.41-.34-.54-.6-.13-.26-.2-.54-.2-.87s.07-.61.2-.87"/>
  <path class="cls-4" d="M43.32,44.04c-.1-.14-.26-.2-.46-.2-.15,0-.28.03-.39.1-.11.07-.2.16-.26.28-.06.12-.09.26-.09.42v1.96h-.5v-3.22h.5v.5c.1-.2.22-.34.36-.43.14-.09.31-.14.5-.14.31,0,.55.11.73.34.18.23.27.53.27.92v2.03h-.5v-1.96c0-.27-.05-.47-.16-.6"/>
  <path class="cls-4" d="M44.68,43.71c.11-.09.26-.18.45-.27.19-.09.42-.13.69-.13.23,0,.43.04.6.11.17.08.3.19.4.33.09.14.14.32.14.53v2.31h-.5v-2.23c0-.11-.02-.2-.05-.28-.03-.07-.08-.13-.14-.17-.06-.04-.13-.07-.21-.09-.08-.02-.16-.03-.25-.03-.14,0-.27.02-.39.05-.12.04-.21.08-.29.13-.08.05-.14.1-.19.13l-.25-.41ZM45.08,45.92c.05.09.13.16.22.2.09.04.2.07.32.07.16,0,.3-.04.42-.11.12-.07.22-.17.3-.3.07-.13.11-.28.11-.44l.1.42c0,.2-.06.38-.17.51-.11.13-.25.23-.41.3-.16.07-.32.1-.48.1-.18,0-.34-.04-.5-.12-.15-.08-.28-.2-.37-.35-.09-.15-.14-.34-.14-.56,0-.31.1-.56.3-.75.2-.19.48-.28.83-.28.21,0,.39.03.53.08.14.05.25.12.34.18.08.07.14.12.17.16v.33c-.15-.11-.3-.19-.45-.24-.16-.05-.32-.07-.5-.07-.16,0-.3.02-.4.07-.1.05-.18.11-.23.2-.05.08-.08.18-.08.3,0,.12.03.23.08.32"/>
  <path class="cls-4" d="M48.18,46.6h-.5v-4.34h.5v4.34ZM48.65,43.91h-1.45v-.52h1.45v.52Z"/>
  <path class="cls-4" d="M49.4,46.46c-.21-.14-.37-.34-.49-.59-.12-.25-.17-.54-.17-.88s.06-.63.18-.88c.12-.25.29-.45.5-.59.22-.14.47-.21.75-.21s.53.07.73.2c.2.13.36.32.47.57.11.25.16.54.16.88,0,.03,0,.07,0,.1,0,.03,0,.06,0,.07h-2.48v-.48h2.08l-.2.32s.02-.06.04-.11c.01-.05.02-.09.02-.12,0-.19-.03-.36-.1-.5-.07-.14-.17-.25-.29-.33-.12-.08-.27-.12-.43-.12-.19,0-.36.04-.5.14-.14.09-.24.22-.31.39-.07.17-.11.38-.12.63,0,.25.04.47.11.64.07.18.18.31.31.41.14.09.31.14.5.14s.37-.05.52-.14c.15-.1.28-.24.38-.44l.41.29c-.15.27-.34.47-.57.61-.23.14-.5.21-.81.21-.27,0-.51-.07-.71-.21"/>
  <path class="cls-4" d="M57.35,46.6h-.54v-4.9h.54v4.9ZM54.15,43.66h3.02v.56h-3.02v-.56ZM54.39,46.6h-.54v-4.9h.54v4.9Z"/>
  <path class="cls-4" d="M58.74,45.15c.15.29.35.52.6.68.25.16.52.24.81.24.21,0,.4-.03.58-.09.17-.06.33-.15.48-.25.14-.11.26-.24.37-.38v.78c-.18.18-.39.32-.61.41-.22.09-.49.13-.81.13-.31,0-.59-.06-.86-.19-.27-.12-.5-.3-.7-.52-.2-.23-.36-.49-.47-.8-.11-.31-.17-.64-.17-1.01s.06-.7.17-1.01c.11-.31.27-.58.47-.8.2-.22.43-.4.7-.52.27-.12.55-.19.86-.19.32,0,.59.04.81.13.22.09.42.22.61.41v.78c-.1-.14-.22-.27-.37-.38-.14-.11-.3-.19-.48-.26-.18-.06-.37-.09-.58-.09-.29,0-.56.08-.81.25-.25.16-.45.39-.6.68-.15.29-.23.62-.23,1s.08.71.23,1"/>
  <path class="cls-4" d="M62.89,45.14c.14.29.34.52.6.69.25.17.54.25.86.25s.61-.08.86-.25c.25-.17.45-.4.59-.69.14-.29.22-.62.22-.99s-.07-.7-.22-.99c-.14-.29-.34-.52-.59-.69-.25-.17-.54-.25-.86-.25s-.6.08-.86.25c-.25.17-.45.4-.6.69-.14.29-.22.62-.22.99s.07.7.22.99M62.27,43.16c.11-.31.27-.57.47-.8.2-.23.44-.4.71-.53.27-.13.57-.19.89-.19s.62.06.89.19c.27.13.51.3.71.53.2.23.36.49.47.8.11.3.17.64.17,1s-.06.69-.17.99c-.11.31-.27.58-.47.8-.2.23-.44.4-.71.53-.27.13-.57.19-.89.19s-.62-.06-.89-.19c-.27-.13-.51-.31-.71-.53-.2-.23-.36-.5-.47-.8-.11-.31-.17-.64-.17-.99s.06-.69.17-1"/>
  <path class="cls-4" d="M67.6,47.3c.08,0,.16-.01.22-.04.06-.03.12-.06.16-.11.04-.04.08-.1.1-.16.02-.06.03-.12.03-.19,0-.09-.01-.17-.04-.24-.03-.07-.07-.12-.13-.16-.06-.04-.13-.06-.21-.06-.12,0-.22.04-.3.12-.08.08-.12.19-.12.31h-.3c0-.15.03-.28.09-.39.06-.11.15-.2.26-.26.11-.06.23-.1.37-.1.15,0,.27.04.38.11.11.07.19.16.25.28.06.11.09.24.09.38s-.04.26-.11.37c-.07.11-.17.2-.29.27-.12.06-.27.1-.44.1v-.22ZM67.37,48.91c-.1-.04-.19-.1-.26-.17-.07-.07-.13-.16-.16-.25-.04-.1-.06-.2-.06-.31h.32c0,.09.02.17.06.24.04.07.1.13.18.17.08.04.16.06.26.06s.18-.02.26-.06c.07-.04.13-.1.17-.18.04-.08.06-.17.06-.27,0-.09-.02-.16-.05-.23-.03-.07-.07-.12-.13-.17-.05-.04-.12-.08-.19-.1-.07-.02-.15-.03-.23-.03v-.23c.12,0,.24.02.35.05.11.03.21.08.29.14.09.06.15.15.2.25.05.1.07.22.07.36,0,.16-.04.3-.11.42-.07.12-.16.21-.28.28-.12.07-.26.1-.41.1-.12,0-.24-.02-.34-.06"/>
  <path class="cls-4" d="M68.6,43.15h.73v.31h-.73v-.31Z"/>
  <path class="cls-4" d="M69.97,46.05c.07-.08.15-.11.24-.11.1,0,.18.04.25.11.07.07.1.17.1.27s-.03.19-.1.27c-.07.08-.15.12-.25.12-.09,0-.17-.04-.24-.12-.07-.08-.1-.17-.1-.27s.04-.2.1-.27M69.97,43.39c.07-.07.15-.11.24-.11.1,0,.18.04.25.11.07.07.1.17.1.27s-.03.19-.1.27c-.07.08-.15.12-.25.12-.09,0-.17-.04-.24-.12-.07-.08-.1-.17-.1-.27s.04-.2.1-.27"/>
  <path class="cls-4" d="M79.34,42.05l1.51-.42v4.97h-.53v-4.26l-.98.32v-.62Z"/>
  <path class="cls-4" d="M83.88,44.13c.1-.12.18-.23.25-.35.07-.11.12-.23.16-.35.04-.12.05-.24.05-.37,0-.11-.02-.21-.06-.32-.04-.1-.09-.2-.17-.28-.07-.08-.16-.15-.27-.2-.1-.05-.22-.08-.36-.08-.19,0-.35.05-.49.14-.14.1-.24.23-.31.41-.07.18-.11.39-.11.64h-.53c0-.35.06-.66.17-.92.11-.26.28-.47.49-.62.22-.15.48-.22.78-.22.24,0,.45.05.63.14.18.09.32.21.44.35.11.14.2.29.25.46.05.17.08.32.08.47,0,.25-.06.5-.16.75-.11.25-.25.47-.42.67l-1.4,1.59h2.01v.56h-3.11l2.09-2.47Z"/>
  <path class="cls-4" d="M86.36,43.36c.06.12.15.21.26.27.11.07.22.1.35.1s.24-.03.35-.1c.11-.06.19-.16.26-.27.07-.12.1-.25.1-.41s-.03-.29-.09-.41c-.06-.12-.14-.22-.25-.29-.1-.07-.23-.1-.37-.1s-.25.03-.36.1c-.11.07-.19.16-.25.29-.06.12-.09.26-.09.41s.03.29.1.41M86.23,45.71c.08.14.19.25.32.32.13.08.27.11.42.11s.29-.04.42-.11c.13-.07.24-.18.32-.32.08-.14.12-.31.12-.51,0-.18-.04-.34-.12-.48-.08-.14-.19-.25-.32-.34-.13-.08-.27-.13-.42-.13s-.29.04-.42.13c-.13.08-.24.2-.32.34-.08.14-.12.3-.12.48,0,.2.04.37.12.51M85.92,42.25c.11-.19.25-.34.43-.45.18-.11.39-.17.62-.17s.44.06.62.17c.18.11.33.26.44.45.11.19.16.4.16.63,0,.19-.03.36-.09.52-.06.15-.14.28-.25.39s-.24.19-.38.25c-.15.06-.31.08-.5.08s-.34-.03-.49-.08c-.15-.06-.28-.14-.38-.25s-.19-.24-.25-.39c-.06-.15-.09-.32-.09-.52,0-.23.05-.44.16-.63M85.71,44.67c.07-.17.17-.32.3-.44.13-.12.27-.21.44-.27.17-.06.34-.09.52-.09s.35.03.52.09c.16.06.31.15.44.27.13.12.23.27.3.44.07.17.11.38.11.6,0,.19-.03.37-.1.54-.07.17-.17.32-.29.45-.12.13-.27.23-.44.31s-.35.11-.55.11-.38-.04-.54-.11-.31-.17-.44-.31c-.12-.13-.22-.28-.29-.45s-.1-.35-.1-.54c0-.22.04-.42.11-.6"/>
  <path class="cls-4" d="M90.04,46.04l-.69,1.75-.37-.15.56-1.81.5.21Z"/>
  <path class="cls-4" d="M91.04,42.05l1.51-.42v4.97h-.53v-4.26l-.98.32v-.62Z"/>
  <path class="cls-4" d="M6.82,56.1h-.54v-4.9h.54v4.9ZM3.62,53.16h3.02v.56h-3.02v-.56ZM3.86,56.1h-.54v-4.9h.54v4.9Z"/>
  <path class="cls-4" d="M8.3,56.1h-.5v-5.46h.5v5.46Z"/>
  <path class="cls-4" d="M9.63,55.09c.09.17.2.31.35.41.15.1.32.15.51.15s.36-.05.51-.15c.15-.1.27-.24.35-.41.09-.17.13-.37.13-.6s-.04-.42-.13-.6c-.09-.17-.2-.31-.35-.41-.15-.1-.32-.15-.51-.15s-.36.05-.51.15c-.15.1-.27.23-.35.41-.09.18-.13.38-.13.6s.04.42.13.6M9.19,53.63c.13-.25.31-.45.54-.6.23-.14.48-.22.76-.22s.54.07.76.22c.23.14.4.34.54.6.13.25.2.54.2.87s-.07.61-.2.87c-.13.25-.31.45-.54.6-.22.15-.48.22-.76.22s-.54-.07-.76-.22c-.23-.14-.41-.34-.54-.6-.13-.26-.2-.54-.2-.87s.07-.62.2-.87"/>
  <path class="cls-4" d="M13.88,53.38c-.05-.03-.12-.04-.21-.04-.13,0-.22.03-.3.1-.07.07-.12.17-.15.29-.03.12-.04.26-.04.41h-.23c0-.26.04-.49.12-.68.08-.2.19-.35.32-.47.13-.12.26-.17.4-.17.11,0,.2.02.29.05.09.03.17.09.25.18l-.28.46c-.07-.06-.13-.1-.18-.12M13.19,56.1h-.5v-3.22h.5v3.22Z"/>
  <path class="cls-4" d="M15.44,56.1h-.5v-3.22h.5v3.22ZM14.95,51.28c.07-.07.15-.11.24-.11.1,0,.18.04.25.11s.1.17.1.27-.03.19-.1.27c-.07.08-.15.12-.25.12-.09,0-.17-.04-.24-.12-.07-.08-.1-.17-.1-.27,0-.11.04-.2.1-.27"/>
  <path class="cls-4" d="M19.16,56.1h-.5v-5.46h.5v5.46ZM16.88,55.12c.09.17.21.3.36.39.15.09.32.13.49.13.15,0,.29-.04.43-.13.14-.09.26-.22.35-.39.09-.17.14-.38.14-.63s-.05-.46-.14-.63c-.09-.17-.21-.3-.35-.39-.14-.09-.29-.13-.43-.13-.18,0-.34.04-.49.13-.15.09-.27.22-.36.39-.09.17-.14.38-.14.63s.04.46.14.63M16.43,53.59c.13-.25.31-.44.52-.58.22-.14.46-.2.72-.2.24,0,.46.07.64.2.18.14.32.33.43.58.1.25.15.55.15.9s-.05.64-.15.9c-.1.25-.25.45-.43.58-.18.13-.39.2-.64.2-.26,0-.5-.07-.72-.2-.22-.14-.39-.33-.52-.58s-.19-.55-.19-.9.06-.65.19-.9"/>
  <path class="cls-4" d="M20.48,55.96c-.21-.14-.37-.34-.49-.59-.12-.25-.17-.54-.17-.87s.06-.63.18-.88c.12-.25.29-.45.5-.59.22-.14.47-.21.75-.21s.53.07.73.2c.2.13.36.32.47.57.11.25.16.54.16.88,0,.03,0,.07,0,.1,0,.03,0,.06,0,.07h-2.48v-.48h2.08l-.2.32s.02-.06.04-.11c.01-.05.02-.09.02-.12,0-.19-.03-.36-.1-.5-.07-.14-.17-.25-.29-.33-.12-.08-.27-.12-.43-.12-.19,0-.36.04-.5.14-.14.09-.24.22-.31.39-.07.17-.11.38-.12.63,0,.25.04.47.11.64.07.18.18.31.31.41.14.09.31.14.5.14s.37-.05.52-.14c.15-.1.28-.24.38-.44l.41.29c-.15.27-.34.47-.57.61-.23.14-.5.21-.81.21-.27,0-.51-.07-.71-.21"/>
  <path class="cls-4" d="M25.79,54.65c.15.29.35.52.6.68.25.16.52.24.81.24.21,0,.4-.03.58-.09.17-.06.33-.15.48-.25.14-.11.26-.24.37-.38v.78c-.18.18-.39.32-.61.41-.22.09-.49.13-.81.13-.31,0-.59-.06-.86-.19-.27-.12-.5-.3-.7-.52-.2-.23-.36-.49-.47-.8-.11-.31-.17-.64-.17-1.01s.06-.7.17-1.01c.11-.31.27-.58.47-.8.2-.23.43-.4.7-.52.27-.12.55-.19.86-.19.32,0,.59.04.81.13.22.09.42.22.61.41v.78c-.1-.14-.22-.27-.37-.38-.14-.11-.3-.19-.48-.26-.18-.06-.37-.09-.58-.09-.29,0-.56.08-.81.24-.25.16-.45.39-.6.68-.15.29-.23.62-.23,1s.08.71.23,1"/>
  <path class="cls-4" d="M30.03,56.1h-.5v-5.46h.5v5.46Z"/>
  <path class="cls-4" d="M30.52,52.65h.73v.31h-.73v-.31Z"/>
  <path class="cls-4" d="M31.98,55.55c.07-.08.15-.11.24-.11.1,0,.18.04.25.11.07.07.1.17.1.27s-.03.19-.1.27c-.07.08-.15.12-.25.12-.09,0-.17-.04-.24-.12-.07-.08-.1-.17-.1-.27s.04-.2.1-.27M31.98,52.89c.07-.07.15-.11.24-.11.1,0,.18.04.25.11.07.08.1.17.1.27s-.03.19-.1.27c-.07.08-.15.12-.25.12-.09,0-.17-.04-.24-.12-.07-.08-.1-.17-.1-.27s.04-.2.1-.27"/>
  <path class="cls-4" d="M86.28,53.63c.1-.12.18-.23.25-.35.07-.11.12-.23.16-.35.04-.12.05-.24.05-.37,0-.11-.02-.21-.06-.32-.04-.1-.09-.2-.17-.28-.07-.08-.16-.15-.27-.2-.1-.05-.22-.08-.36-.08-.19,0-.35.05-.49.14-.14.1-.24.23-.31.41-.07.18-.11.39-.11.64h-.53c0-.35.06-.66.17-.92.11-.26.28-.47.49-.62.22-.15.48-.22.78-.22.24,0,.45.05.63.14.18.09.32.21.44.35.11.14.2.29.25.46.05.17.08.32.08.47,0,.25-.06.5-.16.75-.11.25-.25.47-.42.67l-1.4,1.59h2.01v.56h-3.11l2.09-2.47Z"/>
  <path class="cls-4" d="M89.09,55.54l-.69,1.75-.37-.15.56-1.81.5.21Z"/>
  <path class="cls-4" d="M90.46,54.44c.05.24.12.45.22.62.1.17.21.31.35.4.14.1.29.14.46.14s.33-.05.46-.14c.13-.1.25-.23.35-.4.1-.18.17-.38.22-.62.05-.24.08-.5.08-.79s-.02-.55-.08-.79c-.05-.24-.12-.45-.22-.62s-.21-.31-.35-.41c-.13-.1-.29-.14-.46-.14s-.32.05-.46.14c-.14.1-.25.23-.35.41-.1.17-.17.38-.22.62-.05.24-.08.5-.08.79s.02.55.08.79M90.05,52.35c.14-.38.33-.68.58-.89.25-.22.53-.33.85-.33s.61.11.85.33c.25.22.44.51.58.89.14.38.21.81.21,1.3s-.07.92-.21,1.3c-.14.38-.33.68-.58.89-.25.22-.53.33-.85.33s-.61-.11-.85-.33c-.25-.22-.44-.51-.58-.89-.14-.38-.21-.81-.21-1.3s.07-.92.21-1.3"/>
  <path class="cls-4" d="M3.81,64.64c.11.15.24.27.38.35s.3.13.47.13c.23,0,.42-.07.57-.22.14-.15.21-.33.21-.55s-.05-.39-.14-.53c-.09-.13-.21-.24-.36-.32-.15-.08-.31-.15-.48-.22-.11-.04-.23-.1-.37-.16-.14-.07-.26-.16-.38-.26-.12-.11-.22-.24-.3-.39-.08-.15-.12-.34-.12-.57,0-.24.05-.46.16-.65.11-.19.26-.34.45-.45.19-.11.41-.16.66-.16s.45.05.63.15c.18.1.33.23.46.38.13.16.22.32.3.49l-.46.29c-.05-.12-.12-.24-.21-.36-.08-.12-.19-.21-.31-.29-.12-.07-.27-.11-.44-.11-.24,0-.41.07-.52.19-.11.13-.16.27-.16.43,0,.13.03.26.1.38.06.11.17.22.32.32.15.1.35.2.61.3.12.05.24.11.37.18.13.08.25.17.36.28.11.11.2.25.27.41.07.16.11.35.11.58s-.04.41-.11.58-.17.32-.3.44c-.13.12-.27.21-.44.28-.16.07-.33.1-.51.1-.24,0-.46-.06-.66-.17-.2-.11-.38-.27-.54-.46-.15-.19-.28-.39-.37-.61l.43-.32c.1.2.21.37.32.52"/>
  <path class="cls-4" d="M7.41,64.94c.1.14.26.21.46.21.15,0,.28-.03.39-.1.11-.07.2-.16.26-.28.06-.12.09-.26.09-.42v-1.96h.5v3.22h-.5v-.5c-.1.19-.22.33-.36.43-.14.09-.31.14-.5.14-.3,0-.54-.11-.72-.34-.18-.23-.27-.53-.27-.92v-2.03h.5v1.96c0,.26.05.46.16.6"/>
  <path class="cls-4" d="M10.56,65.6h-.5v-5.46h.5v5.46Z"/>
  <path class="cls-4" d="M12.53,60.66c-.06-.02-.11-.03-.16-.03-.06,0-.12.02-.16.06-.04.04-.08.11-.1.2-.02.09-.04.22-.04.37v4.34h-.5v-4.41c0-.26.03-.47.1-.63.07-.16.16-.29.29-.37.12-.08.27-.12.45-.12.09,0,.17.01.25.04.07.03.13.06.19.11.05.04.09.09.12.13l-.28.46c-.04-.08-.09-.13-.15-.15M12.73,62.91h-1.45v-.52h1.45v.52Z"/>
  <path class="cls-4" d="M13.21,62.71c.11-.09.26-.18.45-.27.19-.09.42-.13.69-.13.23,0,.43.04.6.11.17.08.3.19.4.33.09.14.14.32.14.53v2.31h-.5v-2.23c0-.11-.02-.2-.05-.28-.03-.07-.08-.13-.14-.17-.06-.04-.13-.07-.21-.09-.08-.02-.16-.03-.25-.03-.14,0-.27.02-.39.05-.12.04-.21.08-.29.13-.08.05-.14.1-.19.13l-.25-.41ZM13.61,64.92c.05.09.13.16.22.2.09.04.2.07.32.07.16,0,.3-.04.42-.11.12-.07.22-.17.3-.3.07-.13.11-.28.11-.44l.1.42c0,.2-.06.38-.17.51-.11.13-.25.23-.41.3-.16.07-.32.1-.48.1-.18,0-.34-.04-.5-.12-.15-.08-.28-.2-.37-.35-.09-.15-.14-.34-.14-.56,0-.31.1-.56.3-.75.2-.19.48-.28.83-.28.21,0,.39.03.53.08.14.05.25.12.34.18.08.07.14.12.17.16v.33c-.15-.11-.3-.19-.45-.24-.16-.05-.32-.07-.5-.07-.16,0-.3.02-.4.07-.1.05-.18.11-.23.2-.05.08-.08.18-.08.3,0,.12.03.23.08.32"/>
  <path class="cls-4" d="M16.87,65.6h-.5v-4.34h.5v4.34ZM17.34,62.91h-1.45v-.52h1.45v.52Z"/>
  <path class="cls-4" d="M18.25,65.46c-.21-.14-.37-.34-.49-.59-.12-.25-.17-.54-.17-.88s.06-.63.18-.88c.12-.25.29-.45.5-.59.22-.14.47-.21.75-.21s.53.07.73.2c.2.13.36.32.47.57.11.25.16.54.16.88,0,.03,0,.07,0,.1,0,.03,0,.06,0,.07h-2.48v-.48h2.08l-.2.32s.02-.06.04-.11c.01-.05.02-.09.02-.12,0-.19-.03-.36-.1-.5-.07-.14-.17-.25-.29-.33-.12-.08-.27-.12-.43-.12-.19,0-.36.04-.5.14-.14.09-.24.22-.31.39-.07.17-.11.38-.12.63,0,.25.04.47.11.64.07.18.18.31.31.41.14.09.31.14.5.14s.37-.05.52-.14c.15-.1.28-.24.38-.44l.41.29c-.15.27-.34.47-.57.61-.23.14-.5.21-.81.21-.27,0-.51-.07-.71-.21"/>
  <path class="cls-4" d="M23.49,64.64c.11.15.24.27.38.35s.3.13.47.13c.23,0,.42-.07.57-.22.14-.15.21-.33.21-.55s-.05-.39-.14-.53c-.09-.13-.21-.24-.36-.32-.15-.08-.31-.15-.48-.22-.11-.04-.23-.1-.37-.16-.14-.07-.26-.16-.38-.26-.12-.11-.22-.24-.3-.39-.08-.15-.12-.34-.12-.57,0-.24.05-.46.16-.65.11-.19.26-.34.45-.45.19-.11.41-.16.66-.16s.45.05.63.15c.18.1.33.23.46.38.13.16.22.32.3.49l-.46.29c-.05-.12-.12-.24-.21-.36-.08-.12-.19-.21-.31-.29-.12-.07-.27-.11-.44-.11-.24,0-.41.07-.52.19-.11.13-.16.27-.16.43,0,.13.03.26.1.38.06.11.17.22.32.32.15.1.35.2.61.3.12.05.24.11.37.18.13.08.25.17.36.28.11.11.2.25.27.41.07.16.11.35.11.58s-.04.41-.11.58-.17.32-.3.44c-.13.12-.27.21-.44.28-.16.07-.33.1-.51.1-.24,0-.46-.06-.66-.17-.2-.11-.38-.27-.54-.46-.15-.19-.28-.39-.37-.61l.43-.32c.1.2.21.37.32.52"/>
  <path class="cls-4" d="M27,64.14c.14.29.34.52.6.69.25.17.54.25.86.25s.61-.08.86-.25c.25-.17.45-.4.59-.69.14-.29.22-.62.22-.99s-.07-.7-.22-.99c-.14-.29-.34-.52-.59-.69-.25-.17-.54-.25-.86-.25s-.6.08-.86.25c-.25.17-.45.4-.6.69-.14.29-.22.62-.22.99s.07.7.22.99M26.38,62.16c.11-.31.27-.57.47-.8.2-.23.44-.4.71-.53.27-.13.57-.19.89-.19s.62.06.89.19c.27.13.51.3.71.53.2.23.36.49.47.8.11.3.17.64.17,1s-.06.69-.17.99c-.11.31-.27.58-.47.8-.2.23-.44.4-.71.53-.27.13-.57.19-.89.19s-.62-.06-.89-.19c-.27-.13-.51-.31-.71-.53-.2-.23-.36-.5-.47-.8-.11-.31-.17-.64-.17-.99s.06-.69.17-1"/>
  <path class="cls-4" d="M32.44,65.08h.13v2.86h-.31v-2.08l-.73,1.21h1.44v.31h-1.96l1.42-2.29Z"/>
  <path class="cls-4" d="M34.37,61.83c.06-.07.1-.14.14-.2.04-.07.07-.14.09-.2.02-.07.03-.14.03-.22,0-.06-.01-.12-.03-.18-.02-.06-.05-.11-.1-.16s-.09-.09-.16-.12c-.06-.03-.13-.04-.21-.04-.11,0-.2.03-.28.08-.08.06-.14.14-.18.24-.04.11-.06.23-.06.37h-.31c0-.2.03-.38.1-.54.07-.15.16-.27.29-.36.13-.09.28-.13.45-.13.14,0,.27.03.37.08.1.05.19.12.25.2.07.08.12.17.15.27.03.1.05.19.05.27,0,.15-.03.29-.1.44-.06.14-.15.27-.25.39l-.82.93h1.17v.33h-1.81l1.22-1.44Z"/>
  <path class="cls-4" d="M35.19,62.15h.73v.31h-.73v-.31Z"/>
  <path class="cls-4" d="M36.64,65.05c.07-.08.15-.11.24-.11.1,0,.18.04.25.11.07.07.1.17.1.27s-.03.19-.1.27c-.07.08-.15.12-.25.12-.09,0-.17-.04-.24-.12-.07-.08-.1-.17-.1-.27s.04-.2.1-.27M36.64,62.39c.07-.07.15-.11.24-.11.1,0,.18.04.25.11.07.07.1.17.1.27s-.03.19-.1.27c-.07.08-.15.12-.25.12-.09,0-.17-.04-.24-.12-.07-.08-.1-.17-.1-.27s.04-.2.1-.27"/>
  <path class="cls-4" d="M81.78,64.58c.09.17.2.31.35.4.15.1.32.15.51.15s.36-.05.51-.15c.15-.1.27-.23.35-.4.09-.17.13-.37.13-.59s-.04-.42-.13-.6c-.09-.17-.2-.31-.35-.41-.15-.1-.32-.15-.51-.15s-.36.05-.51.15c-.15.1-.27.24-.35.41-.09.18-.13.38-.13.6s.04.42.13.59M83.58,60.7l-1.38,2.02-.04-.04c.08-.12.18-.19.29-.23.11-.04.24-.06.38-.06.18,0,.35.04.51.12.16.08.3.19.42.34.12.14.21.31.28.51.07.19.1.4.1.63,0,.34-.07.63-.2.88-.13.25-.31.45-.54.59-.23.14-.48.21-.76.21s-.54-.07-.76-.21c-.23-.14-.41-.34-.54-.59-.13-.25-.2-.55-.2-.88,0-.2.03-.39.08-.56.05-.17.12-.32.2-.45l1.49-2.28h.67Z"/>
  <path class="cls-4" d="M85.89,65.04l-.69,1.75-.37-.15.56-1.81.5.21Z"/>
  <path class="cls-4" d="M86.58,60.7h3.09l-2.11,4.9h-.56l1.87-4.34h-2.29v-.56Z"/>
  <path class="cls-4" d="M92.27,60.7h.22v4.9h-.54v-3.58l-1.25,2.07h2.48v.52h-3.36l2.44-3.92Z"/>
  <path class="cls-4" d="M3.81,74.14c.11.15.24.27.38.35s.3.13.47.13c.23,0,.42-.07.57-.22.14-.15.21-.33.21-.55s-.05-.39-.14-.53c-.09-.13-.21-.24-.36-.32-.15-.08-.31-.15-.48-.22-.11-.04-.23-.1-.37-.16-.14-.07-.26-.16-.38-.26-.12-.11-.22-.24-.3-.39-.08-.15-.12-.34-.12-.57,0-.24.05-.46.16-.65.11-.19.26-.34.45-.45.19-.11.41-.16.66-.16s.45.05.63.15c.18.1.33.23.46.38.13.16.22.32.3.49l-.46.29c-.05-.12-.12-.24-.21-.36-.08-.12-.19-.21-.31-.29-.12-.07-.27-.11-.44-.11-.24,0-.41.07-.52.19-.11.13-.16.27-.16.43,0,.13.03.26.1.38.06.11.17.22.32.32.15.1.35.2.61.3.12.05.24.11.37.18.13.08.25.17.36.28.11.11.2.25.27.41.07.16.11.35.11.58s-.04.41-.11.58-.17.32-.3.44c-.13.12-.27.21-.44.28-.16.07-.33.1-.51.1-.24,0-.46-.06-.66-.17-.2-.11-.38-.27-.54-.46-.15-.19-.28-.39-.37-.61l.43-.32c.1.2.21.37.32.52"/>
  <path class="cls-4" d="M7.41,74.44c.1.14.26.21.46.21.15,0,.28-.03.39-.1.11-.07.2-.16.26-.28.06-.12.09-.26.09-.42v-1.96h.5v3.22h-.5v-.5c-.1.19-.22.33-.36.43-.14.09-.31.14-.5.14-.3,0-.54-.11-.72-.34-.18-.23-.27-.53-.27-.92v-2.03h.5v1.96c0,.26.05.46.16.6"/>
  <path class="cls-4" d="M10.15,71.88l.82,2.27.82-2.27h.57l-1.39,3.46-1.39-3.46h.57Z"/>
  <path class="cls-4" d="M13.42,75.1h-.5v-3.22h.5v3.22ZM12.93,70.28c.07-.07.15-.11.24-.11.1,0,.18.04.25.11.07.07.1.17.1.27s-.03.19-.1.27c-.07.08-.15.11-.25.11-.09,0-.17-.04-.24-.11-.07-.08-.1-.17-.1-.27s.04-.2.1-.27"/>
  <path class="cls-4" d="M16.74,74.09c.09.17.2.31.35.41.15.1.32.15.51.15s.36-.05.51-.15c.15-.1.27-.24.35-.41.09-.17.13-.37.13-.6s-.04-.42-.13-.6c-.09-.17-.2-.31-.35-.41-.15-.1-.32-.15-.51-.15s-.36.05-.51.15c-.15.1-.27.24-.35.41s-.13.38-.13.6.04.42.13.6M16.3,72.62c.13-.25.31-.45.54-.6.23-.14.48-.22.76-.22s.54.07.76.22c.23.14.4.34.54.6.13.25.2.54.2.87s-.07.61-.2.87c-.13.25-.31.45-.54.6-.22.15-.48.22-.76.22s-.54-.07-.76-.22c-.23-.14-.41-.34-.54-.6-.13-.26-.2-.54-.2-.87s.07-.61.2-.87"/>
  <path class="cls-4" d="M20.11,74.39c.08.08.16.15.26.2.1.05.21.07.33.07.14,0,.25-.04.34-.11.08-.07.12-.17.12-.3,0-.11-.03-.21-.1-.28-.06-.08-.15-.14-.25-.19-.1-.05-.21-.11-.32-.15-.13-.06-.25-.12-.38-.2-.13-.08-.24-.18-.32-.3-.09-.12-.13-.28-.13-.46s.04-.35.14-.48c.09-.13.21-.22.35-.28.14-.06.3-.09.45-.09s.3.03.44.08c.14.06.26.13.36.22.11.09.19.2.25.32l-.4.29c-.08-.12-.18-.22-.3-.3s-.25-.12-.41-.12c-.1,0-.19.03-.27.08-.07.05-.11.13-.11.24,0,.08.03.16.09.22.06.06.13.12.23.17.09.05.19.1.29.15.17.07.32.16.46.24.14.09.25.19.33.31s.12.28.12.47c0,.28-.09.51-.27.7-.18.19-.42.28-.72.28-.19,0-.37-.04-.52-.12-.16-.08-.29-.18-.39-.3-.11-.12-.19-.24-.24-.37l.4-.27c.06.1.13.19.2.27"/>
  <path class="cls-4" d="M22.87,75.1h-.5v-4.34h.5v4.34ZM23.34,72.41h-1.45v-.52h1.45v.52Z"/>
  <path class="cls-4" d="M23.75,72.21c.11-.09.26-.18.45-.27.19-.09.42-.13.69-.13.23,0,.43.04.6.11.17.08.3.19.4.33.09.14.14.32.14.53v2.31h-.5v-2.23c0-.11-.02-.2-.05-.28-.03-.07-.08-.13-.14-.17-.06-.04-.13-.07-.21-.09-.08-.02-.16-.03-.25-.03-.14,0-.27.02-.39.05-.12.04-.21.08-.29.13-.08.05-.14.1-.19.13l-.25-.41ZM24.15,74.42c.05.09.13.16.22.2.09.04.2.07.32.07.16,0,.3-.04.42-.11.12-.07.22-.17.3-.3.07-.13.11-.28.11-.44l.1.42c0,.2-.06.38-.17.51-.11.13-.25.23-.41.3-.16.07-.32.1-.48.1-.18,0-.34-.04-.5-.12-.15-.08-.28-.2-.37-.35-.09-.15-.14-.34-.14-.56,0-.31.1-.56.3-.75.2-.19.48-.28.83-.28.21,0,.39.03.53.08.14.05.25.12.34.18.08.07.14.12.17.16v.33c-.15-.11-.3-.19-.45-.24-.16-.05-.32-.07-.5-.07-.16,0-.3.02-.4.07-.1.05-.18.11-.23.2-.05.08-.08.18-.08.3,0,.12.03.23.08.32"/>
  <path class="cls-4" d="M27.41,75.1h-.5v-4.34h.5v4.34ZM27.88,72.41h-1.45v-.52h1.45v.52Z"/>
  <path class="cls-4" d="M28.29,72.21c.11-.09.26-.18.45-.27.19-.09.42-.13.69-.13.23,0,.43.04.6.11.17.08.3.19.4.33.09.14.14.32.14.53v2.31h-.5v-2.23c0-.11-.02-.2-.05-.28-.03-.07-.08-.13-.14-.17-.06-.04-.13-.07-.21-.09-.08-.02-.16-.03-.25-.03-.14,0-.27.02-.39.05-.12.04-.21.08-.29.13-.08.05-.14.1-.19.13l-.25-.41ZM28.69,74.42c.05.09.13.16.22.2.09.04.2.07.32.07.16,0,.3-.04.42-.11.12-.07.22-.17.3-.3.07-.13.11-.28.11-.44l.1.42c0,.2-.06.38-.17.51-.11.13-.25.23-.41.3-.16.07-.32.1-.48.1-.18,0-.34-.04-.5-.12-.15-.08-.28-.2-.37-.35-.09-.15-.14-.34-.14-.56,0-.31.1-.56.3-.75.2-.19.48-.28.83-.28.21,0,.39.03.53.08.14.05.25.12.34.18.08.07.14.12.17.16v.33c-.15-.11-.3-.19-.45-.24-.16-.05-.32-.07-.5-.07-.16,0-.3.02-.4.07-.1.05-.18.11-.23.2-.05.08-.08.18-.08.3,0,.12.03.23.08.32"/>
  <path class="cls-4" d="M33.59,71.88l-1.26,1.33,1.39,1.89h-.63l-1.39-1.89,1.26-1.33h.63ZM31.89,75.1h-.5v-5.46h.5v5.46Z"/>
  <path class="cls-4" d="M37.78,72.54c-.1-.14-.26-.2-.46-.2-.15,0-.28.03-.39.1-.11.07-.2.16-.26.28-.06.12-.09.26-.09.42v1.96h-.5v-3.22h.5v.5c.1-.2.22-.34.36-.43.14-.09.31-.14.5-.14.31,0,.55.11.73.34.18.23.27.53.27.92v2.03h-.5v-1.96c0-.27-.05-.47-.16-.6"/>
  <path class="cls-4" d="M39.29,72.21c.11-.09.26-.18.45-.27.19-.09.42-.13.69-.13.23,0,.43.04.6.11.17.08.3.19.4.33.09.14.14.32.14.53v2.31h-.5v-2.23c0-.11-.02-.2-.05-.28-.03-.07-.08-.13-.14-.17-.06-.04-.13-.07-.21-.09-.08-.02-.16-.03-.25-.03-.14,0-.27.02-.39.05-.12.04-.21.08-.29.13-.08.05-.14.1-.19.13l-.25-.41ZM39.69,74.42c.05.09.13.16.22.2.09.04.2.07.32.07.16,0,.3-.04.42-.11.12-.07.22-.17.3-.3.07-.13.11-.28.11-.44l.1.42c0,.2-.06.38-.17.51-.11.13-.25.23-.41.3-.16.07-.32.1-.48.1-.18,0-.34-.04-.5-.12-.15-.08-.28-.2-.37-.35-.09-.15-.14-.34-.14-.56,0-.31.1-.56.3-.75.2-.19.48-.28.83-.28.21,0,.39.03.53.08.14.05.25.12.34.18.08.07.14.12.17.16v.33c-.15-.11-.3-.19-.45-.24-.16-.05-.32-.07-.5-.07-.16,0-.3.02-.4.07-.1.05-.18.11-.23.2-.05.08-.08.18-.08.3,0,.12.03.23.08.32"/>
  <path class="cls-4" d="M44.34,70.55l1.51-.42v4.97h-.53v-4.26l-.98.32v-.62Z"/>
  <path class="cls-4" d="M47.53,73.44c.05.24.12.45.22.62.1.17.21.31.35.4.14.1.29.14.46.14s.33-.05.46-.14c.13-.09.25-.23.35-.4.1-.18.17-.38.22-.62.05-.24.08-.5.08-.79s-.02-.55-.08-.79c-.05-.24-.12-.45-.22-.62s-.21-.31-.35-.41c-.13-.1-.29-.14-.46-.14s-.32.05-.46.14c-.14.1-.25.23-.35.41-.1.17-.17.38-.22.62-.05.24-.08.5-.08.79s.02.55.08.79M47.13,71.35c.14-.38.33-.68.58-.89.25-.22.53-.33.85-.33s.61.11.85.33c.25.22.44.51.58.89.14.38.21.81.21,1.3s-.07.92-.21,1.3c-.14.38-.33.68-.58.89-.25.22-.53.33-.85.33s-.61-.11-.85-.33c-.25-.22-.44-.51-.58-.89-.14-.38-.21-.81-.21-1.3s.07-.92.21-1.3"/>
  <path class="cls-4" d="M53.63,74.23c-.08.21-.19.38-.33.52-.14.14-.31.25-.49.31-.18.07-.38.11-.6.11-.27,0-.5-.05-.7-.14-.2-.09-.37-.22-.51-.37-.14-.16-.26-.33-.36-.51l.45-.34c.07.14.16.27.27.4.11.12.24.22.39.3.15.08.3.11.46.11.21,0,.39-.05.54-.14.15-.09.26-.22.34-.39.08-.17.12-.36.12-.59s-.04-.42-.13-.59c-.09-.17-.2-.3-.35-.39-.15-.09-.32-.14-.51-.14-.14,0-.26.01-.38.04-.12.02-.23.07-.35.13-.12.06-.25.15-.4.27l.58-2.61h2.08v.53h-1.66l-.3,1.3c.11-.06.21-.11.33-.14.11-.03.22-.05.33-.05.25,0,.48.07.68.21.2.14.36.33.47.58.11.25.17.53.17.86,0,.28-.04.53-.12.74"/>
  <path class="cls-4" d="M54.52,71.45c.09.11.21.16.36.16s.26-.05.36-.16c.09-.11.14-.24.14-.41s-.05-.31-.14-.41c-.09-.11-.21-.16-.36-.16s-.26.05-.36.16c-.09.11-.14.25-.14.41s.05.31.14.41M54.34,70.44c.14-.16.32-.24.54-.24s.39.08.54.24c.14.16.21.36.21.61s-.07.44-.21.6c-.14.16-.32.24-.54.24s-.39-.08-.54-.24c-.14-.16-.21-.36-.21-.6s.07-.45.21-.61"/>
  <path class="cls-4" d="M56.61,73.65c.15.29.35.52.6.68.25.16.52.24.81.24.21,0,.4-.03.58-.09.17-.06.33-.15.48-.25.14-.11.26-.24.37-.38v.78c-.18.18-.39.32-.61.41-.22.09-.49.13-.81.13-.31,0-.59-.06-.86-.19-.27-.12-.5-.3-.7-.52-.2-.23-.36-.49-.47-.8-.11-.31-.17-.64-.17-1.01s.06-.7.17-1.01c.11-.31.27-.58.47-.8.2-.22.43-.4.7-.52.27-.12.55-.19.86-.19.32,0,.59.04.81.13.22.09.42.22.61.41v.78c-.1-.14-.22-.27-.37-.38-.14-.11-.3-.19-.48-.26-.18-.06-.37-.09-.58-.09-.29,0-.56.08-.81.25-.25.16-.45.39-.6.68-.15.29-.23.62-.23,1s.08.71.23,1"/>
  <path class="cls-4" d="M60.58,74.55c.07-.08.15-.11.24-.11.1,0,.18.04.25.11.07.07.1.17.1.27s-.03.19-.1.27c-.07.08-.15.12-.25.12-.09,0-.17-.04-.24-.12-.07-.08-.1-.17-.1-.27s.04-.2.1-.27M60.58,71.89c.07-.07.15-.11.24-.11.1,0,.18.04.25.11.07.07.1.17.1.27s-.03.19-.1.27c-.07.08-.15.12-.25.12-.09,0-.17-.04-.24-.12-.07-.08-.1-.17-.1-.27s.04-.2.1-.27"/>
  <path class="cls-4" d="M78.71,70.55l1.51-.42v4.97h-.53v-4.26l-.98.32v-.62Z"/>
  <path class="cls-4" d="M81.9,73.44c.05.24.12.45.22.62.1.17.21.31.35.4.14.1.29.14.46.14s.33-.05.46-.14c.13-.09.25-.23.35-.4.1-.18.17-.38.22-.62.05-.24.08-.5.08-.79s-.02-.55-.08-.79c-.05-.24-.12-.45-.22-.62s-.21-.31-.35-.41c-.13-.1-.29-.14-.46-.14s-.32.05-.46.14c-.14.1-.25.23-.35.41-.1.17-.17.38-.22.62-.05.24-.08.5-.08.79s.02.55.08.79M81.5,71.35c.14-.38.33-.68.58-.89.25-.22.53-.33.85-.33s.61.11.85.33c.25.22.44.51.58.89.14.38.21.81.21,1.3s-.07.92-.21,1.3c-.14.38-.33.68-.58.89-.25.22-.53.33-.85.33s-.61-.11-.85-.33c-.25-.22-.44-.51-.58-.89-.14-.38-.21-.81-.21-1.3s.07-.92.21-1.3"/>
  <path class="cls-4" d="M85.32,70.55l1.51-.42v4.97h-.53v-4.26l-.98.32v-.62Z"/>
  <path class="cls-4" d="M89.09,74.54l-.69,1.75-.37-.15.56-1.81.5.21Z"/>
  <path class="cls-4" d="M90.46,73.44c.05.24.12.45.22.62.1.17.21.31.35.4.14.1.29.14.46.14s.33-.05.46-.14c.13-.09.25-.23.35-.4.1-.18.17-.38.22-.62.05-.24.08-.5.08-.79s-.02-.55-.08-.79c-.05-.24-.12-.45-.22-.62s-.21-.31-.35-.41c-.13-.1-.29-.14-.46-.14s-.32.05-.46.14c-.14.1-.25.23-.35.41-.1.17-.17.38-.22.62-.05.24-.08.5-.08.79s.02.55.08.79M90.05,71.35c.14-.38.33-.68.58-.89.25-.22.53-.33.85-.33s.61.11.85.33c.25.22.44.51.58.89.14.38.21.81.21,1.3s-.07.92-.21,1.3c-.14.38-.33.68-.58.89-.25.22-.53.33-.85.33s-.61-.11-.85-.33c-.25-.22-.44-.51-.58-.89-.14-.38-.21-.81-.21-1.3s.07-.92.21-1.3"/>
  <path class="cls-4" d="M5.49,82.38l1.38,2.22h-1.25l-1.24-2.22h1.1ZM3.95,79.7h.94c.38,0,.69.07.94.2.25.14.44.32.57.56.13.24.2.52.2.84s-.07.59-.2.83c-.13.24-.32.43-.57.56-.25.14-.57.2-.94.2h-.94v-.92h.86c.14,0,.27-.03.37-.07.1-.05.18-.12.24-.22.05-.1.08-.21.08-.35s-.03-.25-.08-.35c-.05-.1-.13-.17-.24-.22-.1-.05-.23-.08-.37-.08h-.86v-1ZM4.35,84.6h-1.06v-4.9h1.06v4.9Z"/>
  <path class="cls-4" d="M7.26,81.66c.16-.09.36-.17.59-.25.23-.08.48-.12.76-.12.26,0,.48.04.69.12.2.08.36.2.48.35.12.15.18.34.18.57v2.27h-.91v-2.03c0-.08-.01-.15-.03-.21-.02-.06-.06-.11-.1-.15-.05-.04-.1-.07-.17-.09-.07-.02-.15-.03-.24-.03-.13,0-.26.02-.38.05-.12.03-.23.07-.32.12-.09.05-.16.08-.2.11l-.32-.71ZM8.06,83.81c.04.06.09.1.15.13.06.03.13.04.21.04.11,0,.21-.02.3-.08.09-.05.17-.13.23-.23.06-.1.09-.23.09-.38l.1.42c0,.2-.05.38-.15.52-.1.14-.23.25-.39.32-.16.07-.33.11-.52.11s-.36-.04-.51-.12c-.16-.08-.28-.19-.38-.35-.09-.15-.14-.34-.14-.56,0-.31.1-.55.3-.73.2-.18.48-.27.84-.27.18,0,.33.02.48.06.14.04.26.08.36.14.1.05.18.11.23.17v.47c-.1-.08-.22-.15-.35-.19-.13-.04-.27-.07-.42-.07-.11,0-.2.01-.27.04-.07.03-.12.07-.15.12-.03.05-.05.12-.05.2,0,.08.02.16.06.21"/>
  <path class="cls-4" d="M11.22,83.75c.12.08.23.13.32.16.09.03.17.05.24.05.1,0,.17-.02.21-.07.05-.05.07-.11.07-.18,0-.07-.02-.13-.06-.18-.04-.05-.1-.1-.19-.14-.09-.05-.21-.1-.37-.15-.14-.06-.27-.12-.39-.2-.12-.08-.23-.18-.31-.31-.08-.13-.12-.3-.12-.5s.05-.36.14-.5c.09-.14.22-.24.38-.31.16-.07.35-.1.56-.1.17,0,.33.02.47.06.15.04.28.1.41.17.13.07.25.15.36.24l-.34.69c-.12-.13-.26-.23-.42-.31-.16-.08-.3-.12-.43-.12-.09,0-.15.02-.2.06-.05.04-.07.09-.07.15,0,.07.03.13.08.18.05.05.13.09.23.13.1.04.22.09.36.15.15.06.29.13.42.21.13.08.23.18.31.3.08.12.12.28.12.48,0,.35-.1.61-.29.78-.19.18-.46.26-.8.26-.21,0-.41-.03-.58-.08-.18-.05-.34-.13-.49-.22-.15-.09-.29-.19-.42-.3l.4-.7c.15.13.28.24.4.32"/>
  <path class="cls-4" d="M14.62,84.6h-.91v-4.34h.91v4.34ZM15.14,82.26h-1.94v-.88h1.94v.88Z"/>
  <path class="cls-4" d="M16.16,81.38l.67,1.78.66-1.78h1.01l-1.68,3.6-1.68-3.6h1.01Z"/>
  <path class="cls-4" d="M19.67,83.42c.06.12.14.21.25.28.1.07.21.1.34.1s.23-.03.34-.1c.1-.06.19-.16.25-.28.06-.12.09-.26.09-.43s-.03-.31-.09-.43c-.06-.12-.14-.21-.25-.28-.1-.07-.21-.1-.34-.1s-.24.03-.34.1c-.1.07-.18.16-.25.28-.06.12-.09.27-.09.43s.03.31.09.43M18.81,82.1c.14-.25.34-.45.59-.59.25-.14.54-.21.85-.21s.6.07.85.21c.25.14.45.34.59.59.14.25.22.55.22.89s-.07.63-.22.88c-.14.25-.34.45-.59.59-.25.14-.53.21-.85.21s-.6-.07-.85-.21c-.25-.14-.45-.34-.59-.59-.14-.25-.21-.55-.21-.88s.07-.64.21-.89"/>
  <path class="cls-4" d="M24.1,82.34c-.06-.03-.13-.05-.21-.05-.09,0-.18.03-.25.08-.07.06-.13.14-.16.24-.04.11-.06.24-.06.39l-.23-.37c0-.26.04-.49.13-.69.09-.2.21-.36.36-.47.15-.12.3-.18.46-.18.1,0,.21.02.3.07.1.05.17.11.22.19l-.41.9c-.05-.06-.1-.1-.16-.13M23.42,84.6h-.94v-3.22h.94v3.22Z"/>
  <path class="cls-4" d="M25.58,84.47c-.25-.14-.44-.33-.57-.58-.13-.25-.2-.55-.2-.89s.06-.64.2-.89c.13-.25.32-.44.56-.58.24-.14.54-.2.87-.2s.62.06.85.19c.23.13.41.32.53.56.12.24.18.54.18.88v.15s0,.09-.01.12h-2.65v-.59h1.79l-.23.32s.04-.07.05-.12.02-.09.02-.12c0-.14-.02-.26-.07-.36-.05-.1-.11-.18-.2-.24-.08-.06-.18-.08-.3-.08-.14,0-.26.04-.36.11-.1.07-.17.18-.22.32-.05.14-.07.32-.08.54,0,.2.02.36.08.5.05.14.13.25.23.32.1.07.22.11.37.11.17,0,.31-.03.43-.1.12-.07.21-.18.29-.32l.85.23c-.15.32-.36.56-.61.71-.26.16-.57.24-.94.24-.34,0-.63-.07-.87-.21"/>
  <path class="cls-4" d="M30.37,82.2c-.06-.1-.17-.15-.32-.15-.1,0-.19.02-.26.07-.08.05-.13.11-.18.2-.04.09-.06.2-.06.32v1.96h-.96v-3.22h.96v.48c.08-.18.2-.31.34-.41.15-.1.32-.15.54-.15.36,0,.62.11.79.32.16.21.25.52.25.9v2.07h-.99v-1.96c0-.19-.03-.34-.1-.44"/>
  <path class="cls-4" d="M33.17,84.6h-.92v-3.22h.92v3.22ZM32.32,79.76c.11-.1.24-.16.39-.16s.29.05.39.16c.11.11.16.24.16.41s-.05.31-.16.41c-.11.11-.24.16-.39.16s-.28-.05-.39-.16c-.11-.11-.16-.25-.16-.41s.05-.3.16-.41"/>
  <path class="cls-4" d="M38.94,81.38l-1.24,1.33,1.37,1.89h-1.12l-1.39-1.89,1.24-1.33h1.14ZM36.75,84.6h-.91v-5.46h.91v5.46Z"/>
  <path class="cls-4" d="M40.43,84.6h-.92v-3.22h.92v3.22ZM39.58,79.76c.11-.1.24-.16.39-.16s.29.05.39.16c.11.11.16.24.16.41s-.05.31-.16.41c-.11.11-.24.16-.39.16s-.28-.05-.39-.16c-.11-.11-.16-.25-.16-.41s.05-.3.16-.41"/>
  <path class="cls-4" d="M41.77,83.75c.12.08.23.13.32.16.09.03.17.05.24.05.1,0,.17-.02.21-.07.05-.05.07-.11.07-.18,0-.07-.02-.13-.06-.18-.04-.05-.1-.1-.19-.14-.09-.05-.21-.1-.37-.15-.14-.06-.27-.12-.39-.2-.12-.08-.23-.18-.31-.31-.08-.13-.12-.3-.12-.5s.05-.36.14-.5c.09-.14.22-.24.38-.31.16-.07.35-.1.56-.1.17,0,.33.02.47.06.15.04.28.1.41.17.13.07.25.15.36.24l-.34.69c-.12-.13-.26-.23-.42-.31-.16-.08-.3-.12-.43-.12-.09,0-.15.02-.2.06-.05.04-.07.09-.07.15,0,.07.03.13.08.18.05.05.13.09.23.13.1.04.22.09.36.15.15.06.29.13.42.21.13.08.23.18.31.3.08.12.12.28.12.48,0,.35-.1.61-.29.78-.19.18-.46.26-.8.26-.21,0-.41-.03-.58-.08-.18-.05-.34-.13-.49-.22-.15-.09-.29-.19-.42-.3l.4-.7c.15.13.28.24.4.32"/>
  <path class="cls-4" d="M44.69,84.47c-.25-.14-.44-.33-.57-.58-.13-.25-.2-.55-.2-.89s.06-.64.2-.89c.13-.25.32-.44.56-.58.24-.14.54-.2.87-.2s.62.06.85.19c.23.13.41.32.53.56.12.24.18.54.18.88v.15s0,.09-.01.12h-2.65v-.59h1.79l-.23.32s.04-.07.05-.12.02-.09.02-.12c0-.14-.02-.26-.07-.36-.05-.1-.11-.18-.2-.24-.08-.06-.18-.08-.3-.08-.14,0-.26.04-.36.11-.1.07-.17.18-.22.32-.05.14-.07.32-.08.54,0,.2.02.36.08.5.05.14.13.25.23.32.1.07.22.11.37.11.17,0,.31-.03.43-.1.12-.07.21-.18.29-.32l.85.23c-.15.32-.36.56-.61.71-.26.16-.57.24-.94.24-.34,0-.63-.07-.87-.21"/>
  <path class="cls-4" d="M48.6,83.42c.06.12.14.21.25.28.1.07.21.1.34.1s.23-.03.34-.1c.1-.06.19-.16.25-.28.06-.12.09-.26.09-.43s-.03-.31-.09-.43c-.06-.12-.14-.21-.25-.28-.1-.07-.21-.1-.34-.1s-.24.03-.34.1c-.1.07-.18.16-.25.28-.06.12-.09.27-.09.43s.03.31.09.43M47.74,82.1c.14-.25.34-.45.59-.59.25-.14.54-.21.85-.21s.6.07.85.21c.25.14.45.34.59.59.14.25.22.55.22.89s-.07.63-.22.88c-.14.25-.34.45-.59.59-.25.14-.53.21-.85.21s-.6-.07-.85-.21c-.25-.14-.45-.34-.59-.59-.14-.25-.21-.55-.21-.88s.07-.64.21-.89"/>
  <path class="cls-4" d="M53.2,82.2c-.06-.1-.17-.15-.32-.15-.1,0-.19.02-.26.07-.08.05-.13.11-.18.2-.04.09-.06.2-.06.32v1.96h-.96v-3.22h.96v.48c.08-.18.2-.31.34-.41.15-.1.32-.15.54-.15.36,0,.62.11.79.32.16.21.25.52.25.9v2.07h-.99v-1.96c0-.19-.03-.34-.1-.44"/>
  <path class="cls-4" d="M55.99,84.6h-.92v-3.22h.92v3.22ZM55.14,79.76c.11-.1.24-.16.39-.16s.29.05.39.16c.11.11.16.24.16.41s-.05.31-.16.41c-.11.11-.24.16-.39.16s-.28-.05-.39-.16c-.11-.11-.16-.25-.16-.41s.06-.3.16-.41"/>
  <path class="cls-4" d="M59.87,81.38l-1.24,1.33,1.37,1.89h-1.12l-1.39-1.89,1.24-1.33h1.14ZM57.68,84.6h-.91v-5.46h.91v5.46Z"/>
  <path class="cls-4" d="M63.42,82.92c.1.22.25.4.44.52.19.13.41.19.66.19s.46-.06.65-.19c.19-.13.33-.3.44-.52.1-.22.15-.48.15-.77s-.05-.55-.15-.77c-.1-.22-.24-.4-.43-.52-.18-.13-.41-.19-.66-.19s-.47.06-.66.19c-.19.13-.33.3-.44.52-.1.22-.15.48-.15.77s.05.55.15.77M62.32,81.12c.12-.31.29-.58.5-.81.22-.23.47-.41.76-.53.29-.12.6-.19.94-.19s.65.06.94.19c.29.12.54.3.75.53.21.23.38.5.5.81.12.31.18.66.18,1.04s-.06.73-.17,1.04c-.12.32-.28.59-.49.83-.21.23-.46.41-.75.54-.29.13-.61.19-.95.19s-.67-.07-.96-.19c-.29-.13-.54-.31-.75-.54-.21-.23-.38-.51-.49-.83-.12-.32-.17-.66-.17-1.04s.06-.72.18-1.04"/>
  <path class="cls-4" d="M68.32,85.61c.07-.08.13-.16.18-.23.05-.07.09-.13.11-.2.03-.07.04-.14.04-.21,0-.04,0-.09-.02-.13-.01-.04-.04-.08-.07-.12-.03-.03-.07-.06-.11-.08s-.09-.03-.15-.03c-.08,0-.15.02-.21.07-.06.04-.1.1-.14.18-.03.08-.05.17-.05.27h-.61c0-.2.04-.39.11-.56.08-.17.19-.3.34-.4.15-.1.34-.15.56-.15.16,0,.3.03.42.08s.22.12.31.21c.08.09.14.19.19.29.04.11.06.21.06.32,0,.16-.03.3-.1.43-.07.13-.16.25-.27.35l-.6.6h1.03v.63h-2.18l1.15-1.32Z"/>
  <path class="cls-4" d="M70.1,83.67c.11-.13.25-.19.42-.19.18,0,.32.06.43.19.11.13.16.28.16.46s-.06.33-.16.45c-.11.13-.25.19-.43.19s-.31-.06-.42-.19c-.11-.13-.17-.28-.17-.45s.06-.33.17-.46M70.1,81.05c.11-.13.25-.19.42-.19.18,0,.32.06.43.19.11.13.16.28.16.45s-.06.33-.16.46c-.11.13-.25.19-.43.19s-.31-.06-.42-.19c-.11-.13-.17-.28-.17-.46s.06-.33.17-.45"/>
  <path class="cls-4" d="M81.21,80.09l2.12-.48v4.99h-1.03v-3.79l-1.09.3v-1.03Z"/>
  <path class="cls-4" d="M86.08,82.34c.12-.14.22-.28.31-.39.09-.12.15-.23.19-.34.05-.12.07-.24.07-.37,0-.08-.01-.15-.04-.22-.02-.07-.06-.14-.11-.2-.05-.06-.11-.11-.19-.14-.08-.04-.16-.05-.26-.05-.13,0-.25.04-.36.11-.1.08-.18.18-.23.32-.05.13-.08.29-.08.47h-1.05c0-.35.06-.67.2-.96.13-.29.33-.52.59-.69.26-.17.58-.26.96-.26.27,0,.51.05.72.14.21.09.39.21.53.37.14.15.25.32.32.5.07.18.11.37.11.55,0,.27-.06.51-.18.73-.12.22-.27.42-.46.6l-1.03,1.02h1.76v1.08h-3.74l1.97-2.26Z"/>
  <path class="cls-4" d="M89.84,84.06l-.79,1.75-.72-.16.55-1.81.96.22Z"/>
  <path class="cls-4" d="M90.6,80.09l2.12-.48v4.99h-1.03v-3.79l-1.09.3v-1.03Z"/>
  <path class="cls-4" d="M5.41,92.07c-.06-.12-.15-.2-.25-.27-.1-.06-.22-.09-.35-.09-.11,0-.22.03-.32.09-.1.06-.19.15-.26.26-.07.12-.1.26-.1.43s.03.32.1.43c.07.12.15.2.26.26.1.06.21.09.32.09.13,0,.24-.03.35-.09.11-.06.19-.15.25-.27.06-.12.09-.26.09-.43s-.03-.31-.09-.43M6.31,93.44c-.13.26-.3.45-.51.58-.21.13-.43.2-.67.2-.25,0-.47-.07-.65-.21-.18-.14-.32-.34-.42-.6-.1-.26-.15-.56-.15-.91s.05-.65.15-.91c.1-.26.24-.46.42-.6.18-.14.4-.21.65-.21s.46.07.67.2c.21.13.38.32.51.58.13.25.2.57.2.95s-.07.69-.2.94M3.19,90.88h.95v4.76h-.95v-4.76Z"/>
  <path class="cls-4" d="M11.2,94.1h-1.06v-4.9h1.06v4.9ZM7.47,90.99h3.34v1.06h-3.34v-1.06ZM8.24,94.1h-1.06v-4.9h1.06v4.9Z"/>
  <path class="cls-4" d="M14.55,90.88l.67,1.78.66-1.78h1.01l-1.68,3.6-1.68-3.6h1.01Z"/>
  <path class="cls-4" d="M18.86,91.84c-.06-.03-.13-.05-.21-.05-.09,0-.18.03-.25.08-.07.06-.13.14-.16.24-.04.11-.06.24-.06.39l-.23-.37c0-.26.04-.49.13-.69.09-.2.21-.36.36-.47.15-.12.3-.18.46-.18.1,0,.21.02.3.07.1.05.17.11.22.19l-.41.9c-.05-.06-.1-.1-.16-.13M18.18,94.1h-.94v-3.22h.94v3.22Z"/>
  <path class="cls-4" d="M20.34,93.97c-.25-.14-.44-.33-.57-.58-.13-.25-.2-.55-.2-.89s.06-.64.2-.89c.13-.25.32-.44.56-.58.24-.14.54-.2.87-.2s.62.06.85.19c.23.13.41.32.53.56.12.24.18.54.18.88v.15s0,.09-.01.12h-2.65v-.59h1.79l-.23.32s.04-.07.05-.12.02-.09.02-.12c0-.14-.02-.26-.07-.36-.05-.1-.11-.18-.2-.24-.08-.06-.18-.08-.3-.08-.14,0-.26.04-.36.11-.1.07-.17.18-.22.32-.05.14-.07.32-.08.54,0,.2.02.36.08.5.05.14.13.25.23.32.1.07.22.11.37.11.17,0,.31-.03.43-.1.12-.07.21-.18.29-.32l.85.23c-.15.32-.36.56-.61.71-.26.16-.57.24-.94.24-.34,0-.63-.07-.87-.21"/>
  <path class="cls-4" d="M26.49,94.1h-.95v-5.46h.95v5.46ZM24.27,92.93c.06.12.15.22.25.29.1.07.22.1.35.1.11,0,.21-.03.32-.1.1-.07.19-.16.26-.28.07-.12.1-.27.1-.44s-.03-.32-.1-.44c-.07-.12-.15-.22-.26-.28-.1-.07-.21-.1-.32-.1-.13,0-.24.03-.35.1-.11.07-.19.16-.25.29-.06.12-.1.27-.1.44s.03.31.1.44M23.37,91.58c.13-.25.3-.44.51-.57.21-.13.43-.2.67-.2s.46.07.65.2c.19.14.34.33.44.58.11.25.16.55.16.9s-.05.64-.16.9c-.11.25-.26.45-.44.58-.19.13-.4.2-.65.2s-.46-.07-.67-.2c-.21-.13-.38-.32-.51-.57-.13-.25-.2-.56-.2-.91s.07-.67.2-.92"/>
  <path class="cls-4" d="M29.02,91.7c-.06-.1-.17-.15-.32-.15-.1,0-.19.02-.26.07-.08.05-.13.11-.18.2-.04.09-.06.2-.06.32v1.96h-.96v-3.22h.96v.48c.08-.18.2-.31.34-.41.15-.1.32-.15.54-.15.36,0,.62.11.79.32.16.21.25.52.25.9v2.07h-.99v-1.96c0-.19-.03-.34-.1-.44"/>
  <path class="cls-4" d="M31.76,92.92c.06.12.14.21.25.28.1.07.21.1.34.1s.23-.03.34-.1c.1-.06.19-.16.25-.28.06-.12.09-.26.09-.43s-.03-.31-.09-.43c-.06-.12-.14-.21-.25-.28-.1-.07-.21-.1-.34-.1s-.24.03-.34.1c-.1.07-.18.16-.25.28-.06.12-.09.27-.09.43s.03.31.09.43M30.9,91.6c.14-.25.34-.45.59-.59.25-.14.54-.21.85-.21s.6.07.85.21c.25.14.45.34.59.59.14.25.22.55.22.89s-.07.63-.22.88c-.14.25-.34.45-.59.59-.25.14-.53.21-.85.21s-.6-.07-.85-.21c-.25-.14-.45-.34-.59-.59-.14-.25-.21-.55-.21-.88s.07-.64.21-.89"/>
  <path class="cls-4" d="M35.13,93.25c.12.08.23.13.32.16.09.03.17.05.24.05.1,0,.17-.02.21-.07.05-.05.07-.11.07-.18,0-.07-.02-.13-.06-.18-.04-.05-.1-.1-.19-.14-.09-.05-.21-.1-.37-.15-.14-.06-.27-.12-.39-.2-.12-.08-.23-.18-.31-.31-.08-.13-.12-.3-.12-.5s.05-.36.14-.5c.09-.14.22-.24.38-.31.16-.07.35-.1.56-.1.17,0,.33.02.47.06.15.04.28.1.41.17.13.07.25.15.36.24l-.34.69c-.12-.13-.26-.23-.42-.31-.16-.08-.3-.12-.43-.12-.09,0-.15.02-.2.06-.05.04-.07.09-.07.15,0,.07.03.13.08.18.05.05.13.09.23.13.1.04.22.09.36.15.15.06.29.13.42.21.13.08.23.18.31.3.08.12.12.28.12.48,0,.35-.1.61-.29.78-.19.18-.46.26-.8.26-.21,0-.41-.03-.58-.08-.18-.05-.34-.13-.49-.22-.15-.09-.29-.19-.42-.3l.4-.7c.15.13.28.24.4.32"/>
  <path class="cls-4" d="M38.53,94.1h-.91v-4.34h.91v4.34ZM39.04,91.76h-1.94v-.88h1.94v.88Z"/>
  <path class="cls-4" d="M39.67,93.17c.11-.13.25-.19.42-.19.18,0,.32.06.43.19.11.13.16.28.16.46s-.06.33-.16.45c-.11.13-.25.19-.43.19s-.31-.06-.42-.19c-.11-.13-.17-.28-.17-.45s.06-.33.17-.46M39.67,90.55c.11-.13.25-.19.42-.19.18,0,.32.06.43.19.11.13.16.28.16.45s-.06.33-.16.46c-.11.13-.25.19-.43.19s-.31-.06-.42-.19c-.11-.13-.17-.28-.17-.46s.06-.33.17-.45"/>
  <path class="cls-4" d="M80.41,90.79c.04.08.1.15.17.19.07.05.16.07.25.07.1,0,.18-.02.25-.07.07-.05.13-.11.17-.19s.06-.18.06-.29c0-.11-.02-.2-.06-.29-.04-.09-.1-.15-.17-.2-.07-.05-.16-.07-.26-.07-.09,0-.18.02-.25.07-.08.05-.13.11-.17.2-.04.09-.06.18-.06.29,0,.11.02.21.06.29M80.33,92.95c.05.1.12.17.21.23.09.05.19.08.29.08s.21-.03.3-.08c.09-.05.16-.13.21-.23.05-.1.08-.22.08-.36,0-.12-.03-.23-.08-.32-.05-.1-.12-.17-.21-.23-.09-.06-.19-.08-.3-.08s-.2.03-.29.08c-.09.06-.16.13-.21.23-.05.1-.08.21-.08.32,0,.14.03.26.08.36M79.55,89.68c.14-.19.32-.34.54-.44.22-.1.47-.15.74-.15s.52.05.75.15c.23.1.41.25.54.44.14.19.2.43.2.7,0,.22-.04.42-.13.58-.09.17-.2.3-.35.41-.14.11-.31.19-.48.24-.18.05-.36.08-.54.08s-.36-.02-.53-.08c-.18-.05-.34-.13-.48-.24-.14-.11-.26-.25-.34-.41-.09-.17-.13-.36-.13-.58,0-.28.07-.51.21-.7M79.34,92.11c.1-.18.23-.33.4-.45.16-.11.34-.2.54-.25.19-.05.38-.08.56-.08s.37.03.56.08c.19.05.37.14.54.25.17.11.3.26.4.45.1.18.15.4.15.66,0,.22-.04.42-.13.6-.09.18-.21.33-.37.45-.16.13-.33.22-.53.29-.2.07-.41.1-.62.1s-.42-.03-.62-.1c-.2-.06-.37-.16-.53-.29-.15-.13-.28-.28-.37-.45-.09-.18-.13-.38-.13-.6,0-.26.05-.48.15-.66"/>
  <path class="cls-4" d="M84.43,93.56l-.79,1.75-.72-.16.55-1.81.96.22Z"/>
  <path class="cls-4" d="M87.41,89.2h.79v4.9h-1.11v-1.23l.12-.08v-1.88l-.95,1.46h1.63l.11-.15h.9v1.01h-4.05l2.56-4.03Z"/>
  <path class="cls-4" d="M91.91,90.49c-.06-.12-.15-.22-.26-.29-.11-.07-.24-.1-.38-.1s-.27.03-.38.1c-.11.07-.2.16-.26.29-.07.12-.1.27-.1.44s.03.31.1.43c.06.13.15.22.26.29.11.07.24.11.38.11s.26-.04.38-.11c.11-.07.2-.17.26-.29s.1-.27.1-.43-.03-.31-.1-.44M89.93,94.08l1.43-1.77.21-.1c-.12.13-.23.21-.34.25-.11.04-.24.06-.4.06s-.33-.04-.49-.11c-.16-.07-.31-.18-.44-.31-.13-.14-.23-.31-.32-.5-.08-.2-.12-.42-.12-.67,0-.41.08-.74.24-1.02.16-.27.38-.47.65-.61.27-.14.57-.21.9-.21s.63.07.9.21c.27.14.49.34.65.61.16.27.24.61.24,1.02,0,.26-.05.5-.15.73-.1.23-.22.44-.36.63l-1.27,1.8h-1.35Z"/>
</svg>